<svg width="207" height="207" viewBox="0 0 207 207" fill="none" xmlns="http://www.w3.org/2000/svg">
<g id="Group 30">
<circle id="Ellipse 3" cx="103.5" cy="103.5" r="103.5" fill="#F9F8F6"/>
<g id="Group 30_2">
<circle id="Ellipse 3_2" cx="103.5" cy="103.5" r="103.5" fill="#F9F8F6"/>
<g id="Mask group">
<mask id="mask0_27_402" style="mask-type:alpha" maskUnits="userSpaceOnUse" x="0" y="0" width="207" height="207">
<circle id="Ellipse 2" cx="103.5" cy="103.5" r="103.5" fill="#F2F1EF"/>
</mask>
<g mask="url(#mask0_27_402)">
<g id="Master/Doodles/Unboxing">
<path id="Ink" fill-rule="evenodd" clip-rule="evenodd" d="M59.6595 23.5094C65.6259 22.9167 71.8098 24.5931 76.9292 27.6125C82.4273 30.8552 87.538 34.6792 92.4531 38.7495L93.0002 39.2042C95.1903 41.0322 97.3916 42.9699 99.2612 45.1117C101.407 47.5699 103.214 50.4819 105.101 53.148C105.628 51.8277 106.319 50.5794 107.064 49.3707L107.115 49.291C107.592 48.5796 109.049 47.0259 108.785 46.2916C108.606 45.7935 107.955 45.8322 107.575 45.5561C107.094 45.2068 106.778 44.6322 106.516 44.1132C105.912 42.9121 105.644 41.5641 105.889 40.2329C106.291 38.0492 107.882 36.3637 109.936 35.5969C112.292 34.7169 114.46 35.5944 116.062 37.425C116.409 35.5043 116.493 33.4279 117.402 31.6605C118.318 29.8818 119.824 28.3306 121.432 27.1671C121.562 27.4424 121.844 27.7742 122.099 27.611C122.334 27.4608 121.95 27.2162 121.992 27.1243C122.16 26.7631 122.207 26.7862 122.491 26.6105L122.575 26.5572C123.647 25.8538 124.706 25.8668 125.889 25.5174L126.016 25.4785C129.105 24.5024 132.718 24.8056 135.817 25.6519C138.889 26.4907 141.398 28.1312 143.707 30.2779C144.118 30.6598 144.714 31.0484 144.975 31.5572C145.183 31.9629 145.072 32.3714 145.374 32.6793C145.515 32.8231 145.822 32.6165 146.002 32.7391C146.316 32.9529 146.228 33.2822 146.374 33.5804C146.63 34.1011 146.881 34.304 146.614 34.9079C146.899 35.0054 147.194 34.9334 147.403 34.7174C147.545 35.1619 148.048 35.6322 148.075 36.095C148.093 36.393 147.654 36.9956 147.779 37.1916C148.669 36.9385 148.561 38.0249 148.666 38.7137C148.8 39.5932 149.218 40.4909 149.209 41.384C149.201 42.1714 149.094 42.6968 149.275 43.4842L149.327 43.7114C149.477 44.3831 149.577 44.9733 149.45 45.6857C148.777 45.4456 149.199 46.0858 149.064 46.4582C148.794 47.2017 148.615 46.4836 148.031 46.8513C149.575 46.9278 149.395 47.8833 149.349 49.2016L149.211 49.7479C149.206 49.7732 149.203 49.7865 149.205 49.782L149.201 49.7958C148.995 50.5053 148.983 54.7168 147.472 53.3358L147.425 53.2917L147.715 54.9209L147.618 54.8694C146.958 54.5248 147.259 54.8961 146.991 55.2339L146.972 55.2568C146.841 55.4061 146.814 55.564 146.635 55.7033C146.451 55.8451 146.163 55.7612 145.992 55.9285C145.235 56.668 145.852 57.7151 144.704 58.2624C143.336 58.9145 142.232 59.6686 140.994 60.5538C140.83 60.6707 140.66 60.8192 140.483 60.9131L140.362 60.9893C140.215 61.3054 140.068 61.3538 139.923 61.1348C139.831 60.9722 139.729 60.9635 139.616 61.1092L139.595 61.1383L139.37 61.3255C139.126 61.3794 138.926 61.737 138.679 61.3923L138.73 61.3283C139.079 60.8991 139.66 60.4287 139.225 59.8488C138.881 60.9521 136.949 60.4979 136.133 60.5304C134.77 60.5848 133.947 60.9682 132.757 60.0654C132.342 59.7508 131.884 59.124 131.301 59.2313C130.763 59.3301 130.204 60.0537 129.789 60.3551C128.607 61.2163 127.104 61.7904 126.18 62.9674C132.99 64.4513 139.792 66.1937 146.253 68.8426C151.909 71.1621 157.257 74.3638 162.42 77.6169C167.595 80.8777 172.681 84.5793 177.178 88.7268C179.471 90.8414 181.884 92.8951 183.996 95.1933C185.833 97.1925 187.428 99.4237 189.038 101.61L189.28 101.937C192.728 106.602 195.954 111.595 197.597 117.21C196.777 117.368 192.928 117.259 192.902 118.492C192.057 117.435 190.256 117.845 189.082 117.733L188.072 117.637C186.89 117.523 185.696 117.399 184.532 117.222C181.603 116.778 178.702 115.723 176.058 114.391L175.838 114.279C173.672 113.17 170.287 111.252 169.538 108.728C169.155 107.439 170.139 106.326 170.959 105.455C171.488 104.892 172.839 103.908 172.614 102.989C173.246 103.311 173.353 102.789 173.822 102.473C174.295 102.156 174.81 101.999 175.346 101.636C176.509 100.846 177.684 100.332 178.9 99.6839C179.249 99.4982 179.496 99.164 179.729 98.9497C179.864 98.8263 179.749 98.6515 180.075 98.5035C180.3 98.4009 180.534 98.5506 180.757 98.5099C181.662 98.3453 182.034 97.4005 181.372 96.66C180.336 95.5009 177.653 97.4819 176.604 98.0091C174.258 99.1888 172.048 100.652 170.091 102.405L169.896 102.581C168.314 104.027 166.868 105.738 166.463 107.903C166.041 110.164 167.45 112.183 168.967 113.728C169.673 114.446 170.521 115.09 171.448 115.492C171.964 115.715 172.275 115.77 172.704 116.119C173.145 116.478 173.467 116.821 173.979 117.111C176.382 118.468 179.083 119.397 181.754 120.055C184.354 120.696 187.299 121.282 189.988 121.074C190.714 121.017 191.836 121.312 192.521 121.072C193.669 120.669 192.832 119.752 192.494 119.043C192.856 119.125 193.157 119.373 193.312 119.71C193.578 119.502 193.874 119.311 194.092 119.048L194.246 119.242C194.342 119.362 194.432 119.465 194.567 119.574C194.679 119.665 194.968 119.452 195.04 119.512C195.545 119.935 195.288 120.489 196.174 120.685C196.083 119.911 197.161 120.477 197.458 120.647C197.52 120.415 197.507 120.187 197.42 119.962L197.527 120.077C197.895 120.468 197.891 120.354 198.248 119.935C198.283 120.691 199.164 120.344 199.559 120.771C199.972 121.218 199.876 122.169 199.97 122.713C200.348 124.907 201.004 126.904 200.905 129.173C200.671 134.515 201.153 139.823 199.631 145.035C199.109 146.82 198.108 148.928 196.403 149.872C194.337 151.015 193.115 149 192.255 147.399L192.028 147.869C190.58 150.876 188.972 154.449 186.297 156.5C184.834 157.622 183.215 157.225 182.365 155.587C182.035 154.953 181.844 154.268 181.837 153.557C181.831 153.001 182.104 152.159 181.746 151.657C180.304 154.412 178.783 157.015 176.85 159.445L176.384 160.023C174.766 162.045 173.274 164.153 171.092 165.62L170.98 165.694C169.933 166.384 168.732 166.949 167.649 165.974C166.743 165.158 166.398 163.777 166.315 162.608C166.109 159.706 167.251 156.893 167.921 154.121C163.21 156.384 159.14 159.708 154.753 162.505C146.969 167.469 138.645 171.546 130.724 176.287L129.958 176.748C127.911 177.988 125.798 179.126 123.839 180.506C122.185 181.671 120.269 183.701 118.292 184.257C117.42 184.503 116.692 183.98 115.921 183.63C115.044 183.232 114.131 182.884 113.22 182.573C112.205 182.227 111.198 182.127 110.15 181.979L109.61 181.9C109.012 181.807 108.409 181.654 108.2 181.002L108.005 181.132C107.752 181.297 107.516 181.415 107.191 181.347C107.024 181.208 106.921 181.03 106.882 180.811L106.489 180.965C105.762 180.934 105.682 180.819 104.971 180.591C104.52 180.446 103.991 180.51 103.567 180.436C103.305 180.39 103.258 180.276 102.964 180.254C102.39 180.21 102.049 180.689 101.613 180.037C101.291 180.383 100.441 180.102 99.9624 179.974C99.5709 179.868 99.4209 179.723 99.1234 179.504L98.9774 179.398C98.6501 179.158 98.7962 179.225 98.4582 179.229C98.3996 179.23 97.9121 179.454 97.7386 179.471L97.6038 179.483C97.3153 179.503 97.0491 179.487 96.8094 179.337C96.502 179.144 96.5656 178.774 96.0846 178.699C95.8057 178.655 95.58 178.911 95.3347 178.889C94.9538 178.857 95.0769 178.79 94.7512 178.622C94.7636 178.293 94.6685 178.179 94.4658 178.281C94.3059 178.315 94.145 178.344 93.9831 178.367C93.781 178.33 93.5498 178.481 93.342 178.417C92.9492 178.296 92.8556 177.88 92.4895 177.764C92.2567 177.689 91.9924 177.727 91.7284 177.794L91.6534 177.813L91.4866 178.098C91.479 178.054 91.4723 178.012 91.4664 177.972L91.4527 177.871L91.2275 177.939C90.6482 178.105 90.1798 178.153 90.2147 177.075L90.2175 177.007C90.0886 177.108 89.9526 177.144 89.8088 177.114C89.7107 176.656 90.1904 176.514 89.6462 176.138L89.5599 176.231C88.8604 176.972 89.0054 176.41 88.381 176.22C88.1516 176.151 86.9359 176.372 86.7322 176.595C86.9095 176.209 86.5199 174.968 86.0077 174.939C85.3665 174.902 85.6352 175.917 85.5197 176.323C85.2409 176.029 84.8302 175.742 84.6303 175.381C84.5767 175.285 84.7577 175.018 84.705 174.944C84.2866 174.354 83.9879 174.571 83.5338 174.979C83.6733 175.094 83.8295 175.18 84.0016 175.235C83.9482 175.345 83.1613 175.025 83.0605 174.99C82.9011 174.955 82.7516 174.99 82.6123 175.094L82.4769 174.763C82.4027 174.697 82.3925 174.324 82.353 174.222L82.3088 174.241C82.0737 174.355 81.4557 174.735 81.3 174.491L81.4935 174.301C81.786 174.009 81.7931 173.925 81.335 173.604L80.7654 173.529C80.632 173.507 80.5377 173.234 80.4056 173.161L80.398 173.343C80.3883 173.641 80.3982 173.998 80.5689 174.227C80.3092 174.067 80.0564 173.793 79.7642 173.692C79.5963 173.634 79.2705 173.745 79.1317 173.649C78.5944 173.28 79.0153 172.564 78.4086 172.19L78.3623 172.399C78.3151 172.621 78.2526 172.94 78.2788 172.953L78.2282 172.926C78.0316 172.817 77.6472 172.562 77.6354 172.584C77.699 172.461 77.6769 172.179 77.6528 172.047C77.2217 172.136 76.8455 172.383 76.4666 172.591C76.6362 172.255 77.223 171.41 76.9473 171.027C76.5143 170.424 76.266 171.235 76.1868 171.623L76.0587 171.25C75.8515 170.668 75.8113 170.805 75.0219 170.934L74.9693 170.943C74.4667 171.021 73.6644 171.075 73.2331 170.724C72.9987 170.533 72.8515 170.139 72.628 169.911C72.3027 169.579 72.041 169.596 71.8848 169.074C71.748 169.416 70.9618 169.789 70.6132 169.645C70.1002 169.432 70.2559 168.784 70.234 168.326L70.1374 168.458C69.9042 168.767 69.5057 169.219 69.4571 168.543C69.2028 168.967 65.5427 168.433 65.386 167.953C65.4874 167.943 65.5746 167.929 65.6494 167.91L65.671 167.904L65.6569 167.842C65.5916 167.525 65.491 166.71 65.1584 166.697L65.1243 166.698C65.1333 166.895 65.3518 167.796 65.0334 167.867L64.94 167.636C64.7882 167.269 64.5845 166.877 64.1552 166.816C63.8649 166.775 63.4713 167.187 63.2096 167.084C62.7664 166.908 63.0189 166.073 62.3661 166.772C61.8744 165.909 60.6895 166.198 59.8631 165.981L59.5938 165.91C59.2491 165.817 58.8618 165.698 58.5908 165.511C58.3981 165.377 58.121 164.913 57.9646 164.836C57.4876 164.602 56.9644 164.711 56.5025 164.399C56.4697 164.239 56.3992 164.097 56.2919 163.975C56.1017 163.961 55.911 163.957 55.7206 163.962C55.3717 163.694 55.3278 163.25 55.0727 162.914L55.0537 162.978C54.9098 163.491 54.8791 164.235 54.1396 163.864C53.935 163.762 54.0105 163.396 53.8441 163.275C53.5322 163.05 53.4766 163.155 53.0927 163.106L52.8287 163.073C51.3668 162.897 49.7569 162.772 48.4625 161.93C48.0011 161.63 47.7474 161.075 47.2905 160.95C47.1906 160.923 46.993 161.274 46.8596 161.258C46.6329 161.23 46.5502 160.936 46.3258 160.826C46.1942 160.762 45.8138 160.816 45.6044 160.771C45.2732 160.699 44.8521 160.56 44.5653 160.365C44.0684 160.027 43.977 159.586 43.7376 159.062C43.5338 159.293 43.544 159.633 43.4873 159.914C42.8959 159.719 41.6722 158.247 41.2352 159.346C40.9447 159.086 40.6442 158.58 40.2407 158.484C39.9797 158.423 40.0185 158.687 39.901 158.693C39.5971 158.707 39.309 158.711 38.9914 158.658C38.5025 158.575 38.2805 158.318 37.8899 158.186C37.4507 158.037 37.3114 158.045 36.8448 157.874C36.5337 157.76 36.2955 157.446 35.9757 157.341C35.4133 157.159 34.9974 157.442 34.6542 156.866C34.0987 157.547 33.4682 156.779 32.7935 156.793L32.7475 156.795L32.9436 155.712C31.9972 156.205 31.9405 156.966 31.1717 155.819L31.1339 155.762V156.449C30.0096 155.929 28.9046 155.921 28.0268 154.982L27.8875 155.57C27.5508 155.184 27.4001 154.685 27.1081 154.271C26.679 154.625 27.1108 154.898 27.2841 155.227C26.7374 154.696 26.1754 154.979 25.5321 154.871C24.9033 154.765 24.8879 154.458 24.5579 154.054C23.9342 153.291 22.7872 153.862 22.386 152.848L22.2269 152.949C21.8524 153.191 21.4533 153.456 20.987 153.388L21.1881 152.716C20.9142 152.736 20.9135 153.126 20.6856 153.185C20.4221 153.253 19.737 152.882 19.5279 152.777C19.6963 152.645 20.1509 152.129 20.0822 151.909C19.9292 151.419 19.585 152.208 19.5451 152.237L19.4512 152.304C19.1603 152.509 19.0754 152.519 18.7537 152.542L18.5287 152.559C18.1727 152.589 17.7846 152.447 17.7043 152.938C17.2298 152.138 16.8852 151.958 15.9771 152.224C16.0307 151.613 15.0829 152.347 14.6765 152.298C13.9839 152.214 13.9375 151.645 13.8106 151.081C13.2251 151.332 12.9405 151.06 12.5656 151.109C12.281 151.146 12.3232 151.481 11.9513 151.35C11.4293 151.164 11.7156 150.462 11.0094 150.415C11.2458 150.568 11.399 150.822 11.434 151.099L11.3779 151.089C11.0412 151.036 10.4083 151.055 10.5111 150.557C10.1242 151.157 9.43731 151.087 8.80678 150.954L8.25485 150.831C7.97935 150.768 7.77579 150.707 7.53606 150.523C7.32301 150.359 7.16384 149.793 6.86786 149.748L6.8242 149.778C6.73562 149.839 6.53485 149.966 6.4363 149.959C6.23318 149.945 5.91981 149.809 5.72514 149.743C5.49868 149.666 5.29829 149.62 5.10064 149.511C4.98592 149.448 5.03459 149.206 4.90646 149.167C4.54864 149.058 4.28419 149.521 3.91893 149.415C3.51245 149.297 3.45658 148.658 3.31852 148.337C2.28778 148.895 1.61784 147.829 1.32111 146.965C0.945171 145.871 1.64118 145.391 2.01017 144.43L1.80198 144.563C1.37964 144.829 0.787924 145.145 0.353698 144.882C-0.286941 144.494 0.0624298 143.888 0.462209 143.546C1.35414 142.783 3.13253 142.53 4.22584 142.25C6.19693 141.745 8.23058 141.101 10.2019 140.707C10.5309 140.642 10.4803 140.74 10.8507 140.597C11.0717 140.512 11.2793 140.29 11.51 140.19C12.3716 139.818 13.4078 139.654 14.3097 139.422C18.2911 138.399 22.5365 137.505 26.6323 137.144C27.7428 137.046 28.8905 137.058 29.9902 136.935C30.8496 136.839 31.6683 136.509 32.5262 136.379C33.7586 136.192 35.0103 136.082 36.2513 135.967C37.1795 135.881 38.1143 136.015 39.0362 135.979L39.2342 135.968L39.2228 135.967C38.7773 135.894 39.8548 135.024 40.0668 136.01L40.0758 136.056C40.3857 135.02 41.9056 135.227 42.7173 135.251C43.2696 135.267 43.7389 135.154 44.2184 135.076C44.6142 135.011 45.1359 135.005 45.6422 134.935L46.0271 134.877C47.2138 134.702 51.547 134.141 51.3431 135.214L51.5187 135.145C52.4799 134.777 52.8699 134.76 52.7277 133.583L52.7188 133.513C52.5171 132.001 52.3689 130.491 52.242 128.968C51.943 125.375 51.6133 121.787 51.1162 118.215L51.079 117.952C50.8771 116.551 50.6043 115.163 49.7169 114.021C48.7451 112.769 47.575 111.737 46.6719 110.419C44.7165 107.564 43.2711 104.4 42.0764 101.163C39.7788 94.9382 37.7313 88.5053 36.1242 82.0674L35.9552 81.3899C35.5893 79.9188 35.2324 78.4283 35.0138 76.9331C34.7903 75.4037 34.8462 73.9186 34.4615 72.4086C33.654 69.2374 33.405 66.0106 33.5348 62.7412C33.9669 51.8575 38.3898 40.2041 45.6111 32.028L45.8373 31.7735C49.5459 27.6294 53.9465 24.0772 59.6595 23.5094ZM135.278 103.535C133.857 100.673 127.445 104.67 125.8 105.64L125.752 105.668C122.113 107.801 118.711 110.362 115.6 113.208C112.926 115.655 110.518 118.394 108.348 121.294C107.738 122.11 107.15 122.943 106.597 123.799C106.159 124.475 105.821 125.396 105.305 125.999C104.468 126.979 102.998 126.025 101.894 125.687C98.4835 124.642 95.0245 123.087 91.9065 121.353C90.332 120.477 88.8707 119.388 87.2164 118.657C86.0874 118.158 84.9576 118.006 83.9219 117.328C82.2659 116.244 80.5133 115.402 78.8891 114.238C77.58 113.3 76.1803 112.484 74.9043 111.501C74.166 110.932 73.3113 109.693 72.4331 109.394C71.4955 109.075 71.8681 110.158 71.9518 110.871L71.9694 111.045C72.117 112.622 72.2827 117.302 69.6674 116.35C68.3869 115.883 67.2521 114.591 66.4183 113.55C65.505 112.409 65.1712 110.809 64.071 109.827L64.0478 110.327C63.9731 112.184 63.8667 115.62 61.6686 115.673C60.1144 115.711 58.6727 114.121 57.8287 113C56.6838 111.478 55.9056 109.729 55.0057 108.061C54.815 109.824 54.7025 111.612 54.4179 113.363C54.1741 114.862 53.7098 116.055 53.9407 117.597C54.4527 121.014 54.8661 124.437 55.2366 127.873L55.6587 131.813C56.1558 136.418 56.693 141.048 57.5182 145.589L57.638 146.237C57.8148 147.179 58.0763 148.084 58.9896 148.53C59.4385 148.749 59.9545 148.784 60.4092 148.99C60.9629 149.242 61.3716 149.666 61.8561 150.022C62.9367 150.815 64.2115 151.209 65.4183 151.759C66.5663 152.282 67.5563 153.063 68.6739 153.638C71.2 154.938 73.6932 156.083 76.1013 157.612C78.3642 159.049 80.6191 160.522 82.9132 161.908L85.2226 163.305C89.2612 165.746 93.2979 168.155 97.5208 170.291C102.579 172.849 107.793 175.189 112.992 177.443C114.281 178.002 115.594 178.521 116.855 179.14L116.979 179.202C117.924 179.679 118.631 180.152 119.641 179.509C120.653 178.864 121.421 177.847 122.383 177.122C123.465 176.306 124.585 175.536 125.713 174.784C130.406 171.653 135.216 168.556 140.225 165.954L142.363 164.843C146.807 162.531 151.171 160.218 155.409 157.475C157.823 155.911 160.249 154.362 162.72 152.89C163.53 152.407 164.338 151.923 165.145 151.437L166.441 150.654C167.198 150.206 168.038 149.868 168.597 150.812L168.813 151.155C170.256 147.692 171.434 144.042 172.535 140.457C173.009 138.912 172.629 137.709 171.963 136.294C171.239 134.756 170.614 133.179 169.92 131.627C168.464 128.368 166.446 125.396 164.929 122.205C164.639 121.594 164.348 121.659 164.056 121.125C163.928 120.89 163.973 120.554 163.822 120.317C163.706 120.136 163.483 120.261 163.383 120.104C163.024 119.543 163.333 117.834 162.15 118.38L162.327 117.543C162.057 117.509 161.586 117.573 161.411 117.304C161.311 117.15 161.661 117.033 161.656 116.919C161.63 116.261 161.427 115.807 160.824 115.695C160.731 115.796 160.619 115.861 160.487 115.891C160.34 115.845 160.206 115.778 160.084 115.688C159.711 115.602 159.377 115.376 158.967 115.306C158.799 115.32 158.636 115.303 158.476 115.254C158.275 115.145 158.19 115.228 158.22 115.503C157.891 115.523 157.988 115.746 157.527 115.426L157.474 115.547C157.153 116.256 156.912 116.337 157.36 117.17C150.742 120.209 144.294 123.597 137.715 126.718C134.587 128.202 131.306 129.323 128.084 130.579C126.562 131.172 125.062 131.903 123.504 132.388L123.148 132.498C122.746 132.623 122.432 132.751 122.112 133.112C121.808 133.454 121.995 133.976 121.46 133.359L121.373 134.384C122.114 134.302 122.1 135.243 121.891 135.721C121.86 135.791 121.619 135.71 121.539 135.908C121.471 136.075 121.476 136.407 121.489 136.602L121.492 136.651C121.562 137.511 121.747 136.909 122.121 137.53C122.441 138.061 122.127 139.215 122.212 139.811C122.314 140.521 122.296 140.97 122.155 141.681C122.425 142.041 122.385 142.242 122.035 142.284C121.852 142.327 121.729 142.438 121.667 142.614C121.523 142.875 121.544 142.948 121.625 143.213C121.78 143.219 121.91 143.277 122.014 143.388C122.078 143.581 122.103 143.779 122.091 143.979C122.157 144.464 121.962 144.991 121.92 145.472C121.826 146.533 121.877 147.592 121.725 148.653C121.614 148.434 121.467 148.243 121.285 148.079C121.153 148.565 121.066 149.063 120.966 149.557C122.671 149.152 120.896 152.606 120.809 153.206C120.719 153.832 121.019 154.309 120.993 154.912C120.966 155.523 120.687 156.073 120.692 156.712C120.704 158.04 120.427 159.384 120.467 160.7L120.471 160.765C120.525 161.433 121.063 163.374 120.129 163.497C118.971 163.65 119.02 160.612 118.946 159.939C118.678 157.485 118.179 155.062 118.064 152.591C117.94 149.925 117.853 147.231 117.8 144.562C117.743 141.745 117.798 138.857 118.069 136.051C118.169 135.012 118.693 133.644 118.54 132.616C118.429 131.877 117.841 131.612 117.218 131.291C114.813 130.051 112.112 129.242 109.539 128.432C108.629 128.145 106.125 127.835 105.71 126.827C106.312 126.769 106.322 126.329 106.733 126.047C106.956 125.895 107.177 126.102 107.319 125.896C107.396 125.783 107.332 125.297 107.385 125.109C107.466 124.828 107.696 124.436 107.895 124.224C108.167 123.934 108.495 124.021 108.602 123.938C108.994 123.632 109.197 122.932 109.396 122.497C109.76 121.703 110.572 120.892 110.767 120.037L110.787 119.935L110.876 120.013C111.014 120.128 111.267 120.328 111.347 120.326L111.359 120.323C111.375 120.316 111.449 119.765 111.487 119.696C111.719 119.284 112.128 118.802 112.456 118.459C113.025 117.864 113.975 117.52 113.935 116.554C114.114 116.705 114.319 116.801 114.55 116.841C114.532 116.676 114.479 116.523 114.391 116.382C115.359 116.352 115.188 115.675 115.708 115.229C115.915 115.051 116.509 115.019 116.891 114.741C117.699 114.155 118.135 113.19 118.967 112.63C119.508 112.265 120.07 111.955 120.611 111.589L120.841 111.428C121.16 111.199 121.526 110.99 121.811 110.722C122.044 110.502 122.182 110.116 122.399 109.941C122.643 109.744 122.682 110.003 122.933 109.892C123.269 109.743 123.72 109.505 124.006 109.273C124.48 108.889 124.885 107.705 125.169 108.615L125.395 107.78L125.898 107.776C126.073 107.632 126.184 107.415 126.368 107.281C126.872 106.914 127.554 106.84 128.106 106.538L128.338 106.41C128.856 106.119 129.461 105.756 129.879 105.436C130.158 105.222 130.481 104.742 130.85 104.672C130.553 105.471 131.822 104.565 132.068 104.433C133.077 103.893 134.099 103.462 135.278 103.535ZM91.7965 177.57C91.8612 177.408 91.3747 176.898 91.4411 177.752L91.4527 177.871L91.588 177.832L91.6534 177.813L91.7965 177.57ZM86.7628 174.228L86.7585 174.284C86.7335 174.537 86.6336 175.007 86.9401 175.099L87.3518 175.041C87.1775 174.755 86.9721 174.489 86.7628 174.228ZM74.6217 169.469L73.6299 170.025L73.7836 170.083C74.2248 170.243 74.2593 170.176 74.6217 169.469ZM65.947 166.385C65.3091 166.67 66.2023 167.529 65.7578 167.872L65.7432 167.882L65.7712 167.872C66.3414 167.653 65.9129 167.093 65.9443 166.428L65.947 166.385ZM197.661 121.736C195.458 125.742 192.188 129.107 188.561 131.843C187.721 132.477 186.873 132.914 185.964 133.435C185.167 133.891 184.511 134.549 183.75 135.058C181.895 136.298 179.842 137.374 177.845 138.371C177.085 138.751 176.008 138.997 175.326 139.513C174.567 140.088 174.424 141.01 174.243 141.9C173.836 143.908 173.339 145.856 172.742 147.813L172.612 148.232C171.856 150.651 171.153 153.086 170.383 155.501L170.065 156.496C169.452 158.426 168.882 160.401 168.882 162.435C170.071 162.316 171.023 161.022 171.794 160.177L171.903 160.059C173.167 158.722 174.211 157.292 175.177 155.728C177.098 152.619 178.843 149.45 180.549 146.221C181.111 145.155 181.884 142.763 183.076 142.227C184.3 141.677 185.011 143.392 185.245 144.331C185.933 147.086 184.909 149.997 184.534 152.723C187.404 150.631 188.742 146.858 190.033 143.697C190.403 142.792 190.796 141.893 191.147 140.981C191.385 140.364 191.545 139.387 192.151 138.991C193.342 138.215 194.038 140.092 194.245 140.952C194.633 142.559 194.242 144.131 194.378 145.72C194.517 147.337 195.762 145.498 196.129 144.908C198.406 141.25 198.316 135.85 198.446 131.69C198.499 129.99 198.598 128.278 198.544 126.577C198.492 124.918 198.018 123.346 197.661 121.736ZM40.0197 156.858C39.2537 156.347 39.4496 157.062 39.7014 157.055L40.0197 156.858ZM33.6501 156.13C33.8547 155.559 33.7183 155.368 33.2408 155.557C33.1711 156.026 33.3076 156.217 33.6501 156.13ZM120.482 155.708L120.583 155.081L119.688 155.306L120.482 155.708ZM29.4824 154.471C29.2011 154.658 28.8907 154.753 28.9784 155.171L29.1 155.134C29.4544 155.02 29.4568 154.973 29.4824 154.471ZM22.1592 153.096C22.2814 153.758 22.8239 153.914 23.4005 154.03C23.731 154.097 23.8507 154.221 24.0146 154.51L21.9084 154.033L22.1592 153.096ZM16.0983 151.039L16.0622 150.991C15.9755 150.881 15.7684 150.638 15.701 150.714C15.5274 150.91 15.9317 151.757 16.0109 151.937C16.1194 151.159 16.7503 151.622 17.2239 151.726L17.6264 151.511C17.2271 151.212 16.5127 150.201 16.0983 151.039ZM12.6737 151.562C12.4898 151.15 12.7389 151.325 12.9619 151.518L13.222 151.752L13.1906 151.766C12.9684 151.861 12.8024 151.806 12.6925 151.6L12.6737 151.562ZM121.403 149.823C121.117 149.889 121.301 150.361 120.906 150.213C120.926 150.221 121.071 151.044 121.098 151.139C121.38 150.734 121.506 150.314 121.403 149.823ZM120.117 149.309C119.741 149.54 119.771 149.941 120.002 150.225C120.274 149.946 120.157 149.693 120.117 149.309ZM120.646 135.161C119.5 134.521 119.832 135.378 120.15 135.338L120.646 135.161ZM177.275 69.5784C178.679 68.5147 179.848 70.5222 180.782 71.0708C180.716 71.0323 181.164 71.0891 181.303 71.1599C181.274 71.1451 181.813 71.5727 181.818 71.5657L181.816 71.5627L181.949 71.6949C182.451 72.214 182.842 72.8342 183.326 73.3751L183.46 73.5206C183.931 74.012 184.431 74.4855 184.872 75.0037C185.385 75.6071 185.612 76.324 186.077 76.9478C186.614 77.6679 187.165 78.081 187.557 78.8744L187.615 78.9963C187.919 79.6687 188.351 79.8075 188.789 80.3198C189.191 80.7901 189.23 81.6175 189.558 81.9487L189.983 82.3742C190.5 82.8943 190.969 83.3915 191.402 84.1006C191.839 84.8174 192.37 85.4268 192.841 86.1178C193.225 86.6795 193.325 87.311 193.664 87.8709C193.92 88.2933 194.254 88.6474 194.502 89.0817C194.715 89.4554 194.894 89.8373 195.136 90.1951C195.023 90.5286 195.124 90.6723 195.44 90.6266L195.667 90.8054C196.046 91.4838 196.251 92.1016 196.724 92.744C197.248 93.4534 197.654 94.2147 198.017 95.017C198.39 95.8424 198.605 96.7293 198.968 97.5505C199.251 98.1892 200.028 98.6433 199.604 99.3907C200.784 99.4031 199.755 99.8009 199.803 100.064C199.882 100.504 200.385 100.685 200.56 101.058C200.604 101.152 200.728 101.659 200.789 101.85C200.851 102.045 200.773 103.509 200.825 103.543C201.096 103.722 201.356 103.348 201.592 103.29C201.766 103.668 202.424 104.364 202.387 104.787C202.349 105.219 201.731 105.322 201.84 105.785C201.923 106.141 203.635 106.489 203.056 107.327C202.908 107.54 202.431 107.313 202.326 107.617C202.12 108.215 203.296 108.323 203.524 108.6C203.934 109.096 203.603 109.838 203.803 110.399C203.943 110.789 204.362 111.118 204.642 111.436L204.542 111.438C203.824 111.459 204.207 111.726 204.384 112.232C204.533 112.662 204.576 113.13 204.639 113.578L204.649 113.64C204.751 114.214 205.157 115.116 204.398 114.745L204.938 115.398C205.213 115.563 205.241 115.762 205.021 115.995L205.091 116.363C205.186 116.835 205.281 117.074 205.782 117.378C205.594 117.598 205.843 118.929 205.906 119.36L205.915 119.43C206.001 120.175 206.242 120.884 206.395 121.616C206.727 123.21 206.389 124.898 206.936 126.453C207.154 127.074 206.772 127.724 206.447 128.225C205.971 127.007 205.945 125.666 205.84 124.379C205.725 122.98 205.439 121.625 205.08 120.27C204.526 118.179 203.982 116.259 203.18 114.256C202.664 112.969 202.104 111.701 201.573 110.421C201.197 109.512 201.157 108.46 200.61 107.685C199.987 106.803 199.44 105.753 199.103 104.688C199.005 104.38 199.038 103.911 198.887 103.64C198.8 103.483 198.451 103.319 198.408 103.215C197.15 100.12 195.071 97.4107 193.401 94.5402C192.031 92.1842 190.447 89.9684 188.999 87.6583L188.69 87.1617C187.085 84.5483 185.316 82.0724 183.712 79.4619C183.068 78.413 181.858 77.2383 181.541 76.0355C181.426 75.5979 181.502 75.4604 181.344 75.18C181.104 74.7552 180.74 74.9638 180.81 74.3353C180.122 74.8622 179.296 73.0232 179.027 72.6428C178.779 73.1404 177.628 71.9604 177.406 71.7211C176.891 71.1639 176.536 70.1379 177.275 69.5784ZM132.693 111.595C131.96 111.533 131.211 112.155 130.605 112.526L130.542 112.564C129.542 113.156 128.562 113.76 127.607 114.425C125.926 115.596 124.265 116.808 122.769 118.212L122.524 118.444C120.845 120.047 116.887 124.134 119.186 126.196C120.704 127.557 123.964 127.143 125.052 125.419C125.505 125.971 126.765 125.523 127.237 125.093C127.483 124.869 127.457 124.471 127.609 124.318L127.757 124.169C127.957 123.972 127.791 124.187 128.2 124.143L128.246 124.137C128.607 124.086 128.65 124.272 128.953 124.01C129.182 123.812 129.094 123.525 129.385 123.343C129.63 123.189 129.859 123.465 130.116 123.229C130.345 123.017 130.318 122.572 130.388 122.292C130.657 122.262 130.622 122.555 130.574 122.723C131.102 122.429 131.193 122.14 130.836 121.634C131.689 122.086 132.641 120.969 132.88 120.255C132.991 119.926 133.049 119.119 132.557 119.106C132.515 118.962 132.75 118.753 132.72 118.451C132.691 118.172 132.537 117.805 132.361 117.577C132.072 117.202 131.733 117.046 131.272 116.981C130.179 116.826 129.034 117.352 127.934 117.352L129.306 116.612L128.707 116.439C128.858 116.159 129.668 116.269 129.934 116.123C130.347 115.896 130.431 115.311 130.984 115.382C131.664 115.468 131.918 115.162 131.779 114.512C132.217 114.555 132.494 114.215 132.897 114.132C133.134 114.084 133.387 114.174 133.628 114.127C134.036 114.047 135.237 113.516 135.542 113.188C136.196 112.485 135.189 112.36 134.671 112.285C133.955 112.18 133.374 111.652 132.693 111.595ZM129.728 119.397L129.754 119.399C130.736 119.506 129.508 120.526 129.037 120.893L128.614 121.216C126.673 122.69 123.954 124.693 121.468 124.112C122.025 123.106 123.046 122.722 123.88 122.014C124.471 121.512 125.027 120.55 125.943 120.97L125.932 120.859C125.851 119.951 126.174 120.784 126.564 120.62C126.806 120.518 127.159 119.908 127.358 120.19L127.377 120.219C127.698 120.797 129.253 119.404 129.728 119.397ZM197.569 118.899L197.543 119.079C197.495 119.375 197.448 119.407 197.13 119.619L197.112 119.427C197.075 118.989 197.125 118.98 197.569 118.899ZM124.961 118.828C125.252 119.051 124.825 119.35 124.671 119.446L124.469 119.58C124.51 119.269 124.698 118.996 124.961 118.828ZM148.183 118.593C148.811 118.355 146.84 118.026 146.846 118.352C146.853 118.721 147.966 118.675 148.183 118.593ZM125.876 118.579L125.831 117.614L125.857 117.619C126.095 117.66 127.092 117.71 126.599 118.098C126.365 118.268 126.123 118.428 125.876 118.579ZM155.177 110.771L155.503 111.703C155.044 111.513 154.567 111.083 154.091 111.516C154.536 111.89 154.007 112.238 153.638 112.311C153.409 112.301 153.184 112.262 152.964 112.197C152.779 112.244 152.726 112.36 152.804 112.543C152.852 112.76 152.794 112.944 152.628 113.093C152.396 113.185 152.162 113.275 151.928 113.362C151.637 113.485 151.362 113.644 151.064 113.751C150.108 114.094 149.086 114.097 148.153 114.524L148.069 114.564C147.309 114.926 146.593 115.421 146.116 114.375C145.595 114.937 145.164 115.676 144.28 115.563L144.51 115.961C144.932 116.682 145.687 117.824 146.375 117.4C147.104 116.951 148.119 116.815 148.942 116.597C149.889 116.346 150.845 116.023 151.824 115.947C152.683 115.88 152.856 115.779 153.591 115.424C154.317 115.073 155.241 115.001 156.048 114.859L156.34 114.804C157.108 114.654 159.765 114.086 159.313 113.299C159.061 112.859 157.506 113.2 157.674 112.36C157.936 112.529 158.222 112.591 158.531 112.546C158.355 111.943 157.787 111.166 157.136 111.019L157.203 111.099C157.387 111.328 157.757 111.845 157.545 112.012C156.976 112.461 156.935 111.13 156.79 110.951C156.539 111.187 156.585 111.773 156.148 111.806C156.079 111.811 155.404 110.868 155.177 110.771ZM40.1669 78.6312L40.0975 78.6093C39.5712 78.4374 38.2352 77.9022 37.8515 78.413C37.5748 78.781 37.9004 79.7625 37.9831 80.1497C38.364 81.9315 38.9746 83.6645 39.541 85.3932C40.4426 88.1457 41.1803 90.9514 42.0725 93.7084C43.0684 96.7863 44.1092 99.8591 45.4095 102.824L45.7095 103.5C46.7577 105.884 47.7778 108.793 49.9794 110.325L49.9931 110.261C50.1254 109.58 50.0569 107.712 51.1323 107.991C52.0275 108.223 52.0545 110.168 52.2708 110.875C53.7785 110.612 52.1591 102.563 52.6902 101.259C53.6304 98.9513 55.9624 104.133 56.829 106.203L57.1526 106.992C57.4997 107.821 60.4633 113.559 61.5693 111.279C62.3738 109.619 61.5758 106.921 61.3033 105.121L61.2725 104.915C61.1454 104.111 60.7914 102.465 61.3902 101.853C61.8888 101.344 62.0637 101.816 62.4113 102.166C62.9524 102.711 63.5612 102.733 63.7909 103.644C64.3039 105.678 65.0267 107.362 66.158 109.131L66.6406 109.875C67.461 111.134 68.4957 112.604 69.9405 112.979C69.9405 111.442 69.914 109.896 69.829 108.362L69.8133 108.109C69.747 107.118 69.6434 106.062 70.319 105.245C72.0251 103.182 73.9602 106.761 75.487 107.438C73.4397 104.359 72.3601 100.763 70.9358 97.3819C69.3548 93.6289 67.5876 89.9614 66.086 86.1741C65.6835 85.1591 65.4528 83.2024 64.3692 82.6911C63.8339 82.4383 62.9807 82.5064 62.417 82.4383C61.5479 82.3335 60.6793 82.2258 59.8112 82.112C56.3371 81.6566 52.8916 81.0495 49.4383 80.4623C46.3302 79.9334 43.1921 79.5415 40.1669 78.6312ZM188.066 105.589C187.442 104.405 185.262 104.923 184.188 104.94L184.134 104.941C182.302 104.942 180.427 105.135 178.786 106.012L178.652 106.085C177.438 106.751 175.531 108.047 176.523 109.569C177.31 110.779 179.029 111.41 180.384 111.862L180.668 111.957C181.463 112.22 184.057 112.981 184.596 112.284C185.343 113.06 186.61 112.51 187.295 112.364C187.316 112.36 187.513 112.542 187.65 112.519C187.984 112.462 188.194 112.129 188.319 111.852C188.511 111.422 188.457 110.302 188.282 109.857C187.881 108.84 186.269 108.5 185.265 108.446L185.133 108.44C184.665 108.424 183.885 108.455 183.885 109.099C183.884 109.704 184.803 109.896 185.216 110.147C184.867 110.889 180.291 109.266 179.934 108.595C180.164 108.663 180.542 108.238 180.751 108.193C180.956 108.147 181.433 108.227 181.673 108.214C182.881 108.149 184.064 108.152 185.271 108.254C187.109 108.41 188.995 108.838 190.835 108.838C190.659 108.239 190.522 107.592 190.204 107.048L190.122 106.907C190.023 106.737 189.897 106.538 189.755 106.452C189.633 106.378 189.37 106.579 189.329 106.551C188.964 106.305 188.487 104.771 188.066 105.589ZM154.092 107.258C153.943 107.265 153.821 107.559 153.804 107.558C153.706 107.551 153.493 107.681 153.364 107.68C153.115 107.677 152.966 107.377 152.761 107.409C152.447 107.458 152.567 107.79 152.319 107.883C152.129 107.955 151.938 107.904 151.847 107.914C151.755 107.925 151.612 107.737 151.355 107.84C151.215 107.897 151.254 108.243 151.077 108.321C150.368 108.635 150.324 108.086 150.408 107.596C150.173 107.914 149.452 108.415 149.743 108.886L149.694 108.873C149.269 108.749 148.465 108.346 148.612 109.14L148.517 109.075C148.006 108.718 147.899 108.544 147.276 108.955C148.454 109.528 146.742 109.577 146.305 109.59C146.174 109.594 145.791 109.564 145.703 109.583C145.371 109.652 145.187 109.954 144.915 110.03C144.189 110.232 144.567 109.771 143.961 109.716C144.079 110.965 142.964 109.72 142.595 110.451C142.361 110.917 142.306 111.87 142.636 112.308C143.011 112.808 143.485 112.676 144.062 112.581C145.346 112.37 146.335 111.424 147.598 111.211C148.007 111.142 148.351 111.322 148.714 111.299L148.996 111.486C149.111 111.335 149.249 111.207 149.409 111.103C150.072 110.772 150.69 110.515 151.414 110.337C152.752 110.008 154.898 110.111 155.962 109.136C155.374 108.846 154.864 108.491 154.481 107.948C154.401 107.834 154.311 107.247 154.092 107.258ZM78.0645 106.632C77.8294 107.276 78.4023 107.752 77.4929 107.494L77.3856 107.463L77.7414 107.861L78.1223 108.389C77.1515 108.642 78.7279 109.501 79.0598 109.747L79.0746 109.758C79.5752 110.145 80.5065 111.256 81.2458 111.143L81.2982 111.133L80.1858 106.646C79.5419 107.731 78.8782 107.174 78.0645 106.632ZM191.144 108.594C190.752 108.985 192.026 109.433 192.113 108.867L191.144 108.594ZM148.822 102.409C148.623 102.485 148.441 103.06 148.239 103.207C148.139 103.281 147.791 103.208 147.654 103.248C147.354 103.334 147.158 103.589 146.883 103.721L146.638 103.842C146.433 103.941 146.236 104.009 145.985 103.938C145.812 103.89 145.901 103.496 145.634 103.558C145.016 103.7 145.189 104.557 144.463 104.566C143.91 104.572 143.709 103.834 143.085 103.999C143.686 104.271 143.726 104.892 143.015 104.962C142.634 105 142.389 104.597 141.983 104.767C141.675 104.896 141.753 105.506 141.36 105.567C140.805 105.653 141.15 104.864 140.864 104.622L140.842 104.728C140.655 105.707 140.829 107.072 141.912 107.129C142.692 107.17 143.956 106.51 144.689 106.28C145.592 105.997 146.479 105.762 147.408 105.61L147.662 105.571C148.156 105.499 150.76 105.248 150.797 104.43C150.802 104.303 150.371 104.384 150.355 104.291C150.322 104.088 150.434 104.094 150.466 103.902C150.549 103.427 151.161 103.252 150.339 102.911C150.651 103.588 149.129 103.417 149.129 102.87C149.338 103.054 149.47 103.025 149.528 102.783C149.434 102.752 148.781 102.425 148.822 102.409ZM78.839 100.559C78.6589 101.265 78.9845 102.264 78.104 102.586C77.9892 102.628 76.7025 102.548 76.7045 102.554C76.7971 102.838 76.3007 103.098 76.2685 103.412C76.2372 103.714 76.5276 104.315 76.6837 104.584L76.705 104.62C77.2555 105.534 77.3277 105.107 77.9796 104.768C78.7424 104.371 79.7488 104.643 79.6686 103.417C79.6333 102.874 79.2529 102.442 79.1215 101.934C79.0096 101.502 79.202 100.893 78.839 100.559ZM66.2106 103.576L67.2999 104.673C67.0512 104.899 66.4726 104.423 66.2472 104.3L66.2252 104.289C65.8724 104.118 66.0099 103.796 66.2106 103.576ZM96.3639 80.7123C93.2967 78.3379 88.7032 81.5558 86.0155 83.2629L85.5979 83.5287C83.8879 84.6296 79.5091 87.6509 81.9699 89.4064C82.1517 88.9105 82.7714 88.5954 83.1898 88.2942L83.2432 88.255C83.4012 88.1363 83.7533 87.955 83.8546 87.7715C83.9219 87.6493 83.8546 87.3982 83.9121 87.2668L83.9225 87.2477L83.9224 87.25C83.9429 87.3079 84.9682 86.8315 84.9345 86.8628L84.9311 86.865L84.9908 86.8325C85.7816 86.378 86.4391 85.6647 87.1734 85.1182L87.312 85.0178C87.9123 84.595 88.5385 84.2104 89.1684 83.833L89.8737 83.4126C91.183 82.6393 92.8819 81.7499 94.4288 82.0443C96.6213 82.4616 96.3663 85.2493 96.0694 86.9161L96.0592 86.9725C95.6644 89.1496 94.9044 91.3094 93.9528 93.3051C93.0584 95.1803 91.9249 96.9309 90.6635 98.5787C90.0745 99.3477 89.4656 100.122 88.7994 100.826C88.3927 101.255 87.4253 101.968 87.5658 102.674C87.7414 102.632 87.8635 102.527 87.9323 102.36L88.0016 102.46C88.394 103.051 88.5263 103.604 89.2859 102.837C89.5349 102.586 89.7013 102.24 89.9548 101.977C90.3221 101.597 90.4139 101.737 90.6933 101.213C90.8773 100.868 90.8929 100.604 91.1499 100.309C91.2761 100.163 91.5569 100.082 91.7171 99.8761C92.1238 99.3527 92.5683 98.8002 92.9765 98.2619C92.2365 98.2619 93.9625 96.7079 94.1766 96.3707L94.2254 96.2874C94.5175 95.7645 95.5186 93.6524 94.766 93.534L94.9149 93.3066C95.5654 92.3069 95.9561 91.6048 96.2636 90.3554C96.5608 89.1491 97.1923 88.3109 97.2117 87.0239C97.2289 85.8677 97.3402 84.7659 97.2101 83.6348L97.1828 83.4224C97.0612 82.5667 97.1364 81.3103 96.3639 80.7123ZM136.424 102.792C136.081 102.661 135.137 102.023 134.796 102.532C134.386 103.144 135.421 102.865 135.548 102.979C135.895 103.29 136.141 102.987 136.424 102.792ZM144.537 97.4871C144.387 97.65 144.251 98.0528 144.088 98.1601L143.781 98.362C143.281 98.6962 143.119 98.8779 143.159 99.6519C142.886 99.5143 142.542 99.1453 142.235 99.1146C141.9 99.0813 141.857 99.3775 141.638 99.3837C141.646 99.3835 141.528 99.6956 141.413 99.7366C141.168 99.8247 140.909 99.2489 140.772 99.154C140.497 99.571 139.843 99.5988 139.44 99.8155C139.434 100.061 139.718 100.148 139.731 100.366C139.742 100.537 139.624 100.543 139.622 100.658C139.615 101.023 139.422 101.518 139.759 101.929C140.186 102.451 140.763 102.237 141.288 102.006L141.471 101.926C142.239 101.588 144.614 99.9404 145.268 101.135C145.591 100.254 146.647 100.062 147.466 100.222C147.081 99.2933 146.482 98.7774 145.521 98.5966L145.242 98.5448C144.669 98.4347 144.412 98.3219 144.537 97.4871ZM86.0161 90.9593L85.9981 90.8399C85.8321 89.8509 85.3263 89.5319 84.3947 90.0277C83.2944 90.6134 82.105 91.5905 81.3303 92.5619C80.9225 93.0729 80.6804 93.6753 80.2864 94.1906C79.9266 94.6606 79.4446 94.8382 79.8585 95.4974C79.0565 94.8873 78.3942 96.5637 77.7442 96.8612C76.8875 97.2535 75.1086 97.0382 74.4409 97.662C74.0205 98.0545 74.1529 98.8315 74.4908 99.2606C74.9842 99.8875 75.3894 99.6445 76.074 99.4853L76.7126 99.3393C77.8321 99.0745 78.6305 98.7609 78.4536 97.3362C79.1988 97.7792 79.8507 97.7196 80.5708 97.3433L80.6385 97.3071C81.0579 97.0779 81.8537 96.772 82.1931 96.4716C82.7044 96.0196 82.5013 95.5545 83.091 95.1493C83.7634 94.6877 84.3855 94.3589 85.003 93.7717C85.2531 93.5338 85.0979 93.3493 85.267 93.0968C85.3641 92.9523 85.6846 92.9505 85.7817 92.7966C86.0864 92.3138 86.0891 91.5034 86.0161 90.9593ZM198.397 97.0159L198.3 97.142C198.058 97.4637 198.145 97.4454 198.319 97.8688L198.351 97.7898C198.484 97.4818 198.654 97.2692 198.397 97.0159ZM140.104 93.7315C138.96 93.4968 138.083 95.3745 138.356 96.2836C138.791 97.7285 141.686 96.0668 142.622 95.8399C142.029 95.5315 142.327 94.678 141.736 94.343C141.472 94.1938 140.977 94.2698 140.672 94.1253C140.454 94.022 140.385 93.7891 140.104 93.7315ZM79.5953 90.2747C78.2502 89.9115 77.811 92.1763 77.6255 92.987C77.2536 92.2879 77.3143 91.0399 76.5074 90.6472L76.4453 90.6194L76.3375 91.3665C75.7264 90.7855 75.6288 91.4733 75.3616 91.8617C74.9172 92.5083 74.5747 92.6148 73.9165 92.4455C73.7439 92.4517 73.5805 92.4939 73.4263 92.5721C73.6677 92.1212 73.8072 92.0993 74.3026 92.1855C74.1064 90.8933 72.7253 92.6712 72.0574 92.6198L72.919 94.9432L73.1801 94.8328C74.2223 94.3871 75.2402 93.9063 76.3867 93.8439C76.7949 93.8216 77.3198 94.0689 77.6558 93.9723C78.0474 93.8601 77.8455 93.1191 78.3587 93.9157C78.5921 93.2795 81.1053 90.6827 79.5953 90.2747ZM82.232 93.3717C82.1995 93.4033 82.2956 93.8793 81.7915 93.9823C81.757 93.7037 81.904 93.5004 82.232 93.3717ZM168.32 85.5564C167.656 84.914 165.051 86.3584 164.278 86.6367C161.28 87.7157 158.133 88.2416 155.026 88.8954C153.665 89.1817 152.584 89.7746 151.295 90.2315C150.784 90.4128 150.26 90.4036 149.759 90.5747C149.376 90.7058 149.528 90.9414 149.06 90.8429C149.25 90.8828 148.148 91.5255 148.2 91.3377C148.014 92.0194 149.365 92.1467 149.851 92.1326C150.143 92.1241 150.737 91.9615 151.065 91.9014C151.484 91.8247 151.785 91.8967 151.909 91.37C153.172 92.2965 155.501 91.5121 156.872 91.1965C158.708 90.7741 160.599 90.2184 162.385 89.6212C163.138 89.3696 163.898 89.1664 164.656 88.9419L165.034 88.8276C165.394 88.7163 165.953 88.6066 166.242 88.3526C166.506 88.1209 166.147 87.7892 166.66 87.6017C167.128 87.4311 167.58 87.8607 168.1 87.6585C168.825 87.3762 168.839 87.1391 168.792 86.5498C168.798 86.6211 168.25 85.4883 168.32 85.5564ZM136.576 89.9266C136.694 90.3132 136.706 91.1634 137.025 91.4478C137.219 91.6206 138.148 91.7475 138.147 91.2387C138.147 90.5595 137.116 90.0624 136.576 89.9266ZM80.0577 89.2591C80.1376 89.1802 79.0302 89.3865 79.4664 89.8476C79.6648 89.6527 79.8618 89.4565 80.0577 89.2591ZM65.9959 49.4062C64.8522 49.0223 63.6124 49.2316 62.4585 49.4476L62.5007 49.5562C62.7234 50.113 62.9962 50.6115 62.6022 51.19L62.5786 51.1122C62.4621 50.6992 62.4822 50.324 61.9599 50.4563C61.4332 50.5899 61.6274 51.4051 61.1459 51.6425C61.1285 51.4269 61.0635 51.2268 60.9502 51.0425C60.8631 51.4294 60.7856 52.3635 61.1052 52.6921C61.5489 53.1477 61.865 52.6116 62.0788 53.2729C62.1573 53.5152 62.0055 54.3341 61.8715 54.5576C61.6482 54.9301 61.6239 54.7356 61.1365 54.9415C60.5624 55.1846 60.58 55.4932 60.1383 55.9012C59.5195 56.4728 58.5039 56.7956 57.7629 57.1763C56.0471 58.0583 54.299 58.8635 52.542 59.6591C48.9816 61.2714 45.3875 62.5953 41.5936 63.5303L41.2004 63.6256C40.6576 63.755 36.158 64.2837 36.848 65.0368C37.7482 66.0201 39.571 66.3434 40.3356 65.0206C40.8222 65.559 41.3839 65.0646 41.9083 64.888C42.4914 64.6919 42.7533 64.7624 43.3488 64.8314C43.825 64.8865 44.344 64.9275 44.8198 64.8384C45.2347 64.7607 45.5652 64.3696 45.8624 64.2906C46.0084 64.2519 46.3059 64.4513 46.5085 64.3852C46.6411 64.3418 46.6823 64.1806 46.7943 64.1431C47.3463 63.9566 47.7297 63.7493 48.3517 63.6649C49.5888 63.4965 50.5103 62.7441 50.7241 61.4715C52.0195 63.3493 53.7639 59.7495 54.8517 60.8071C54.957 60.2941 55.5875 60.5309 55.9076 60.1885C55.4852 59.9561 56.6172 59.4699 57.1476 59.8615L57.1363 59.6778C57.0752 58.5987 57.236 59.4963 57.4528 59.4453C58.5585 59.1854 59.4067 58.314 60.5763 58.0903L60.7798 58.0503C61.56 57.8902 61.2955 57.831 61.3629 56.8172C61.9842 57.475 61.6919 58.509 61.7853 59.3301C61.9204 60.5188 62.3028 61.661 62.3932 62.8549C62.4803 64.0063 62.3696 65.1416 62.8461 66.2234C63.1982 67.0228 63.5063 67.7451 63.7902 68.5655C63.9746 69.0989 64.5679 69.6615 64.6702 70.186C64.729 70.4872 64.4812 70.7695 64.543 71.0662C64.6356 71.5095 65.0136 71.8439 65.1767 72.2688C65.4759 73.0473 65.5315 73.8913 65.8469 74.6719C66.0513 75.1775 66.6624 76.0237 66.2723 76.5606L65.8082 76.0655C66.0244 76.7592 66.2631 77.8784 66.6167 78.49L66.6851 78.6063C66.934 79.0189 66.9966 78.9644 67.3961 78.4455C67.8421 79.5266 68.924 79.8388 68.9577 81.1543C68.9888 82.342 68.3161 82.9729 67.1473 82.9729L67.6859 83.9751C68.1045 84.7562 68.5159 85.5434 68.875 86.3504C69.2778 87.2553 69.5562 88.2391 70.1191 89.0645C70.689 89.8996 70.9535 89.7183 71.8153 89.3931L71.8711 89.3721C72.8825 88.9949 73.8725 88.6545 74.9268 88.404C75.4657 88.2756 76.0795 88.2741 76.3554 87.7437C76.6718 87.1345 76.3064 85.7233 76.235 85.0429L76.2292 84.9813C76.0149 82.3695 75.6015 79.7817 75.1891 77.1953C74.3235 71.7652 74.207 66.2458 73.2868 60.8331L73.1307 59.9165C72.7993 57.9901 72.4113 55.9779 71.6452 54.2102C71.4167 53.6831 71.1493 53.1658 70.8138 52.698C70.5467 52.3253 69.9597 51.895 69.8822 51.416C69.7104 50.3517 71.1066 50.4682 71.269 49.6165C71.0055 49.8688 70.566 49.4755 70.0543 49.8094C69.4238 50.2209 69.2594 50.6264 68.4042 50.4975C67.5309 50.3656 66.823 49.6835 65.9959 49.4062ZM80.8709 89.1231L80.6335 88.2311L80.5604 88.3445C80.3422 88.6894 80.3862 88.7256 80.8709 89.1231ZM79.8183 79.9897C78.8638 81.5168 76.3986 83.2992 77.3014 85.3565C77.6138 85.1193 77.1611 84.5894 77.3911 84.4593C78.0389 84.7729 77.5912 84.0712 77.7782 83.963C77.8358 83.9294 78.3416 83.7817 78.2837 83.8552L78.4597 83.6295C78.9457 82.9984 79.5445 82.1473 79.7564 81.4137L79.7808 81.3227C79.898 80.8496 80.2851 80.4183 79.8183 79.9897ZM122.72 35.9346C121.72 35.6987 119.971 38.0572 119.321 38.7132C117.867 40.1793 116.578 41.7897 115.239 43.3574L114.42 44.3099C111.691 47.5032 109.136 50.7612 107.01 54.4133C106.76 54.8434 106.543 55.2447 106.493 55.745C106.456 56.115 106.619 56.5014 106.495 56.8699C106.281 57.5098 105.696 57.4882 105.331 58.0307L105.229 58.1828C104.487 59.3031 103.477 61.0552 103.501 62.354C103.553 65.1873 103.399 67.9994 103.986 70.7926C104.493 73.2062 105.309 75.5785 106.378 77.8009L106.49 78.0309C108.157 81.3945 110.732 84.3212 114.607 84.9738C116.349 85.2671 118.132 85.1675 119.465 83.8939C121.02 82.4086 122.086 80.0393 122.935 78.0785L123.187 77.4932C123.564 76.6108 123.928 75.6619 123.909 74.7127C123.883 73.4498 123.933 72.2812 124.003 71.0146C124.144 68.4888 122.997 66.0457 124.095 63.5919C122.395 63.8598 120.605 63.4585 118.964 63.0356C119.197 65.9474 120.193 68.7782 121.273 71.4812L121.448 71.9184C121.655 72.4302 123.144 75.4787 122.099 75.4916C121.444 75.4996 120.905 74.0042 120.665 73.566C120.15 72.6266 119.578 71.7225 119.101 70.7611C118.002 68.5468 117.284 66.1896 117.024 63.7346L117.001 63.5042C116.873 62.1484 116.61 61.0616 115.898 59.8898L115.663 59.5034C115.096 58.5633 114.582 57.6469 114.347 56.5421L114.324 56.4322C114.133 55.4834 113.822 53.3238 114.523 52.6181C115.026 52.1125 115.153 52.816 115.307 53.3421C115.563 54.2169 115.614 55.1374 115.88 56.0102L115.956 56.2542C116.081 56.643 116.242 57.0626 116.519 57.3466C116.855 57.6913 117.316 57.7442 117.652 58.0876C118.039 58.4834 118.141 59.0783 118.54 59.4781C118.874 59.8121 119.355 60.0224 119.79 60.1756C120.698 60.4954 121.693 60.5679 122.648 60.5148C124.917 60.3884 126.709 59.216 128.431 57.8342L128.642 57.664C129.225 57.1897 131.549 55.7706 131.412 54.909C130.248 55.1354 129.168 53.0717 129.953 52.1987C130.402 51.6998 130.89 52.0638 131.387 52.3616C131.646 52.5172 131.911 52.6198 132.099 52.8718C132.31 53.1561 132.231 53.6071 132.539 53.8291C133.316 52.6834 134.028 51.495 134.802 50.348L134.862 50.2612C135.369 49.5513 136.186 48.8236 135.59 47.9702C134.992 47.114 133.75 46.411 132.884 45.7948L132.789 45.7267C131.734 44.9582 130.644 44.2453 129.566 43.5118C127.838 42.338 126.375 40.8844 125.107 39.2285C124.627 38.6012 124.192 37.9623 123.797 37.2802C123.558 36.8678 123.249 36.0595 122.72 35.9346ZM93.6616 69.3978C92.7923 68.7507 91.6052 69.2768 90.7517 69.7022L90.6965 69.7298C88.3619 70.8995 86.2034 72.6281 84.4454 74.5594L84.3038 74.7164C83.0048 76.1697 81.2087 77.638 80.6209 79.5736L80.5843 79.7005C80.5337 79.8862 80.4028 81.3676 81.0752 80.6306L81.1021 80.315C81.126 80.0606 81.1653 79.7308 81.2183 79.6406C81.3845 79.3582 81.6566 79.1297 81.9153 78.9208L82.0543 78.8085C82.7399 78.2508 83.3743 77.8143 83.9686 77.164C84.3122 76.7875 84.7639 76.5062 85.0686 76.1506C85.0991 76.1151 85.2622 75.7091 85.3983 75.5507C85.9608 74.8969 86.6896 74.478 87.272 73.8273L87.3945 73.6842C87.7051 73.3038 87.9922 73.1746 88.3296 72.9017C88.4977 72.7659 88.6576 72.5938 88.8285 72.4476C88.866 72.4156 89.1294 72.5755 89.159 72.5365C89.2109 72.4138 89.2158 72.2892 89.1741 72.1625C89.2099 71.9559 89.3293 71.8946 89.5319 71.9788C89.6668 71.8464 90.0698 71.6738 90.2803 71.4814C90.7666 71.0361 91.3108 70.7542 91.9166 70.5051L92.2432 70.3742C92.783 70.1637 93.464 69.9558 93.8006 70.5448C93.9752 70.8502 93.6576 72.0863 93.9941 72.2184L94.037 72.1064C94.3589 71.2323 94.4963 70.0189 93.6616 69.3978ZM149.457 72.1983C149.28 72.0942 149.138 72.1355 149.032 72.3219C148.405 72.2522 147.783 72.3686 147.178 72.5236C146.041 72.8146 144.973 73.3253 143.889 73.7686L143.416 73.9598C141.9 74.5801 139.852 75.5806 139.255 77.1528C138.586 78.9161 140.449 79.222 141.653 79.7755C141.799 79.9167 141.963 80.0334 142.144 80.1251C142.266 80.0911 142.371 80.0267 142.459 79.9324C142.816 79.988 143.028 80.2351 143.408 80.3471C143.956 80.5088 144.677 80.4048 145.263 80.4241L145.371 80.4292C145.989 80.4685 150.486 81.0716 150.238 79.8847C151.021 81.239 153.842 80.1767 154.944 79.8936C155.75 79.6863 156.592 79.7372 157.179 79.2081L157.246 79.1466C157.701 78.7214 158.477 77.8946 158.711 79.0156C159.961 78.2518 158.176 77.1021 157.392 77.0026C156.41 76.8775 155.393 77.3723 154.438 77.5785L154.329 77.601C153.77 77.7083 147.263 78.371 147.366 77.6554C147.368 77.6368 149.636 77.1111 149.894 77.046C151.015 76.7642 152.172 76.3391 153.31 76.1504L153.474 76.1253C154.24 76.0164 154.965 75.9965 154.433 74.961L154.381 74.8631C154.022 74.2108 153.941 74.597 153.298 74.6183C153.207 74.4218 153.059 74.3373 152.855 74.3646L152.813 74.3715C152.57 74.4085 152.333 74.4688 152.103 74.5528C151.547 74.7171 150.993 74.9118 150.445 75.099C149.394 75.4576 148.363 75.8611 147.402 76.4203L147.199 76.54C145.664 77.4534 144.138 78.5286 142.39 77.344C142.954 76.5601 144.081 76.4839 144.866 76.0297C145.23 75.8186 145.583 75.3784 146.008 75.2858L146.121 75.3236C146.229 75.3585 146.383 75.4036 146.447 75.395C147.534 75.2498 148.518 74.6583 149.574 74.3953C149.924 74.3082 151.2 74.2759 151.368 73.8878C151.623 73.301 150.35 72.9536 150.004 72.6879C149.778 72.574 149.596 72.4108 149.457 72.1983ZM159.584 76.3977C158.935 77.454 160.032 77.2089 160.429 77.7487C160.679 77.5655 159.672 76.7709 159.584 76.3977ZM65.1598 76.1407C64.3267 76.175 64.8951 77.4287 65.214 76.6326C65.2326 76.4647 65.2145 76.3009 65.1598 76.1407ZM139.673 68.8034C138.735 68.6898 137.672 69.572 136.9 70.0468L136.836 70.0854C134.782 71.312 132.833 72.6958 130.975 74.2014L130.666 74.4534C130.393 74.6782 129.39 75.7978 130.34 76.1154C130.128 76.0446 131.209 75.6557 131.193 75.6672C132.012 75.0975 132.913 74.772 133.776 74.2578C134.675 73.7214 135.454 73.0222 136.289 72.3972C137.305 71.6361 138.523 71.1795 139.536 70.4363C139.682 70.329 139.806 70.112 139.963 70.0333C140.102 69.9637 140.553 69.9253 140.61 69.8294C140.914 69.3171 140.078 68.8526 139.673 68.8034ZM155.05 74.5731L154.96 74.884L154.581 74.8306L154.591 74.8499C154.714 75.07 155.536 76.3179 155.724 75.4377C155.808 75.041 155.107 74.9007 155.053 74.6065L155.05 74.5731ZM64.2356 74.8761C64.3521 75.0459 64.472 75.2128 64.5954 75.3774C64.9525 75.8246 65.4044 75.807 65.458 75.1708C65.0054 75.588 64.6647 74.9627 64.2356 74.8761ZM64.2657 71.8335C63.996 71.5884 63.8006 71.7022 63.7561 72.0833C63.7095 72.4828 64.982 73.8178 65.1998 73.2576C64.8986 72.9797 64.4847 72.6783 64.2793 72.3098C64.2225 72.208 64.3548 71.9147 64.2657 71.8335ZM62.2097 65.1552L61.7011 64.0994L61.6905 64.223C61.6362 64.9102 61.7183 65.0204 62.2097 65.1552ZM61.3093 64.8582V63.7642L61.2169 63.8393C60.5851 64.3612 60.5969 64.5352 61.2186 64.818L61.3093 64.8582ZM50.6198 62.1728L50.4604 62.734C50.7161 62.8571 51.0293 62.3913 51.1797 62.2584L50.6198 62.1728ZM60.1613 59.0334C60.1613 59.4021 60.0753 59.8622 60.2983 60.1943L60.3342 60.2432L60.51 60.0505C60.6016 59.6748 60.5152 59.2472 60.1613 59.0334ZM140.918 58.754C140.696 58.6277 140.503 58.7374 140.34 59.0831C139.391 60.0008 140.57 59.5625 140.918 58.754ZM122.658 56.8526C123.443 56.93 125.849 58.4077 124.553 59.1586C123.896 59.539 122.671 59.0439 122.187 58.5547C121.68 58.0435 121.688 56.8506 122.658 56.8526ZM127.409 52.416C127.638 51.8762 127.836 49.4596 128.765 50.0203C130.018 50.7766 128.853 54.357 128.392 55.2631C127.759 56.5076 124.944 57.4808 124.691 55.4233C124.586 54.5701 124.931 53.1674 125.872 52.9114C126.725 52.6794 127.025 53.3201 127.409 52.416ZM74.0039 34.6193C73.4395 34.6377 72.7683 34.7219 72.2414 34.9255C71.7726 35.1065 71.5829 35.5592 71.1841 35.7327C71.3009 35.682 70.735 35.5248 70.7252 35.5158C70.494 35.4934 70.0893 35.7198 69.8668 35.7936C69.062 36.0608 68.2577 36.3292 67.4631 36.6244C65.975 37.1772 64.5008 37.782 63.0435 38.4113C60.2753 39.6071 57.5799 41.011 54.9374 42.4665L54.4716 42.7239C49.3609 45.5561 43.5524 48.9222 40.1565 53.8214C39.1117 55.3292 41.0036 55.8807 42.1667 56.0196L42.2485 56.0288C43.0905 56.1182 45.3653 56.9262 45.588 55.5988C46.0276 56.3725 47.4129 55.7346 48.0632 55.4466C48.3361 55.3259 48.7463 55.3276 48.9881 55.2005C49.3249 55.0237 49.1942 54.6718 49.5161 54.5472C49.7361 54.462 49.7691 54.7307 50.0246 54.6788C50.217 54.6398 50.3829 54.4667 50.5729 54.4265L50.6146 54.4199C51.0257 54.3679 53.0449 54.3734 51.8288 53.8653C52.1933 53.5465 52.6989 53.5117 53.0413 53.1586C53.2688 53.3508 53.2986 53.5666 53.1302 53.8055C53.8111 53.7491 55.0283 53.097 55.6004 52.7661C56.1479 52.4495 56.1127 52.1569 56.4427 51.6819C56.7104 51.2966 57.1306 50.9752 57.474 50.6445L57.5581 50.5616L57.644 51.6246C58.2988 51.5809 58.1508 51.008 58.1729 50.5285C59.1172 50.6346 59.8753 50.1926 60.4621 49.5187C60.6351 49.3195 60.5661 48.924 60.9254 48.9051C61.1134 48.8952 61.3985 49.342 61.4531 49.3743L61.4577 49.3752L61.5815 49.324C61.7352 49.2618 61.9698 49.1719 61.9539 49.1998L61.9488 49.2054C62.269 48.9254 62.1795 47.1125 62.7926 48.3298L62.8438 48.4353C63.2588 48.1246 63.3437 47.8522 63.5207 47.5602C63.699 47.2662 63.8309 47.1687 64.1996 46.8645C64.8556 46.3229 64.9979 45.2852 65.8618 44.9555C65.7734 45.2356 65.4799 45.5114 65.5715 45.8342C66.4394 45.5152 66.4071 43.7971 66.1506 43.1056C65.722 41.9519 64.4072 42.1434 63.415 42.3815C61.9251 42.7386 60.6582 43.586 59.2975 44.25L59.1803 44.3058C58.2387 44.745 56.7628 45.2383 56.5546 46.3756L57.0326 46.183C57.6552 45.9315 58.2209 45.6821 58.7507 45.2154C58.9998 44.9959 59.2632 44.4867 59.6416 44.4613C59.737 44.4549 59.9394 44.5616 59.9846 44.5475L60.3063 44.4468C61.0541 44.2178 62.2706 43.8985 62.746 44.323C62.819 44.1621 62.8873 43.7777 63.0859 43.6983C63.5806 43.5006 63.2061 43.8326 63.5183 43.9297C63.9595 44.0665 64.3377 44.2977 64.7963 44.4852C64.6684 44.9403 64.4266 44.4874 64.2294 44.5458C63.9719 44.6217 63.7934 44.7012 63.5475 44.8807C63.0221 45.2649 62.6181 45.7314 62.049 46.0783C61.1524 46.6246 59.6923 47.1565 59.1502 48.1182C58.9024 48.5582 59.1537 48.8636 58.6025 48.9972C58.523 49.0166 58.4475 48.661 58.3214 48.6612C58.0898 48.6619 57.9187 48.7448 57.7054 48.8201L57.6326 48.8447C57.0182 49.0434 56.4352 49.3337 55.9167 49.7228C55.5483 49.9996 55.1323 50.678 54.6523 50.7577L54.6609 50.6733C54.7079 50.0971 54.4069 50.4566 53.8541 50.6982L52.8653 51.116C52.0719 51.4503 51.2783 51.7857 50.4713 52.0867C49.6137 52.4065 48.7391 52.6742 47.8624 52.9358L47.4866 53.0476C46.5664 53.3213 45.6322 53.5942 44.6817 53.7407C44.2507 53.807 43.8422 53.8278 43.4074 53.8221C43.2803 53.8206 43.1607 53.7465 43.0446 53.7176L42.9868 53.7074L42.9576 53.7043L42.953 53.709C42.9259 53.7315 42.8717 53.762 42.7759 53.8027L42.6905 53.8373C42.5296 53.7223 42.1991 53.2118 42.4529 53.0404C42.5557 53.0737 42.6463 53.1278 42.724 53.2028C42.8931 52.3161 43.6388 51.7244 44.2638 51.1483C44.0647 51.4882 44.1858 51.8212 44.5129 52.0142C44.9563 51.3633 45.7579 50.9887 46.3876 50.5519C46.5612 50.4309 46.733 50.3073 46.9026 50.1811C47.2378 50.0915 47.362 49.9023 47.2751 49.6135C47.4402 49.4807 47.4826 49.1092 47.7779 49.4226C47.8305 49.4054 48.1012 48.7303 48.17 48.6242L48.1956 48.7147C48.4128 49.4467 48.5123 48.8375 48.9097 48.4301C49.1498 48.184 49.4396 47.8175 49.7728 47.6973C50.4991 47.4356 50.3342 47.7785 50.8209 47.1138C51.3493 46.3924 52.2075 46.3085 53.0118 45.9271C53.79 45.5584 54.5324 45.1591 55.3357 44.8383C55.1135 44.7655 54.9143 44.6518 54.739 44.4971C55.4802 43.8425 56.2157 44.8902 56.2274 43.3958C57.0389 43.5034 58.5352 43.3578 59.2712 42.935C60.29 42.3497 61.3351 41.8131 62.3755 41.2745C63.2527 40.8201 64.3151 40.589 65.2776 40.2007L65.4687 40.1209C66.7334 39.5726 68.1038 39.3308 69.3309 38.6938C69.9641 38.3653 70.4404 38.2302 71.089 38.0321C71.4967 37.9074 71.9104 37.5365 72.3375 37.5139C72.6968 37.4948 72.9207 37.7689 73.3228 37.7053C73.7521 37.6375 74.0421 37.2564 74.4925 37.2189C74.8779 37.1866 75.0954 37.39 75.5347 37.2589C75.9809 37.1255 76.3549 36.7583 76.8388 36.7401C77.699 36.7079 79.1486 37.422 79.7458 37.9236C80.0043 38.1411 80.153 38.4599 80.5011 38.3961C81.1438 38.2787 80.9049 37.8148 80.3916 37.8886C81.1142 36.878 79.5551 36.6033 78.9159 36.3302C78.3908 36.1057 77.8127 35.8085 77.4189 35.3819C77.2816 35.2331 77.147 34.8522 76.995 34.7547L76.9586 34.7663C76.8555 34.8022 76.5667 34.9076 76.5329 34.9026C76.4386 34.889 76.4525 34.6546 76.2958 34.6655C75.9896 34.6874 75.7239 34.8358 75.4113 34.8254C74.9355 34.8093 74.5032 34.6029 74.0039 34.6193ZM40.6753 23.1858C41.0654 22.2899 42.0189 22.6849 41.9427 23.5726C41.8828 24.2704 41.483 24.0467 41.1808 24.3556C40.8635 24.6799 40.937 24.9984 40.6914 25.3237C40.3118 25.8268 39.4904 26.0317 38.9413 26.4895C38.8867 26.6405 38.8236 26.788 38.7524 26.932C38.6121 26.9703 38.4693 26.9956 38.3243 27.008C38.2478 27.1016 38.1554 27.4659 38.1718 27.446L37.9578 27.7005C37.878 27.7969 37.7999 27.8937 37.7716 27.9357C37.5622 28.2448 38.3558 28.2073 37.5972 28.404C37.4254 28.4487 37.197 28.1443 36.9588 28.1818L36.8054 28.2072C36.4701 28.2681 36.8055 28.2699 36.7468 28.6265L36.7097 28.8477C36.6017 29.4717 36.5068 29.7615 35.9542 30.3227L35.9079 30.3671C35.6176 30.6341 34.8748 31.1546 35.1025 31.5786C33.8815 31.4513 34.7633 32.0534 34.2828 32.6578C34.2878 32.6513 33.1244 32.5607 32.9193 32.739C32.7261 32.9069 32.3616 33.8383 32.1563 34.1864C31.9397 34.5539 31.8702 34.9082 31.7265 35.2941C31.6716 35.5799 31.5559 35.8391 31.3796 36.0718C31.2653 36.0852 31.1633 36.0529 31.0736 35.975C30.8564 36.2235 30.9162 36.4495 30.7466 36.7527C30.4942 37.2043 30.4167 37.0583 30.0788 37.176L30.0402 37.1902C29.4825 37.4057 29.2208 37.3382 28.9024 38.0121C28.5876 38.6778 29.1209 38.7158 29.0251 39.4337C28.9166 40.2491 27.8958 41.1252 27.4774 41.8117L27.4054 41.9354C27.153 42.3825 26.821 43.048 26.4481 42.2363C26.5651 43.424 25.9311 44.3495 25.4479 45.3685C25.2376 45.8118 25.0799 46.2334 24.9342 46.702C24.7676 47.2373 24.5093 47.4072 24.2814 47.8462C24.0246 48.3406 23.6298 50.9066 22.8193 50.8795C23.0803 51.1805 23.5506 52.6323 22.7198 52.4508C22.7371 52.6813 22.7431 52.9119 22.7381 53.1429L22.4923 53.1367L22.2795 53.1704C21.9368 52.6448 22.7364 50.333 22.8749 49.733L23.0086 49.098C23.3045 47.7043 23.6202 46.3503 24.1001 44.9911C25.2376 41.7693 26.693 38.6957 28.4661 35.7746C30.146 33.0073 32.1333 30.4274 34.1741 27.9145L34.7206 27.2452C35.3716 26.4743 39.6386 21.909 40.6753 23.1858ZM148.532 51.4937L148.071 52.7278C148.384 52.2727 148.824 52.0412 148.532 51.4937ZM61.6417 51.9549C61.7914 52.0393 61.918 52.1498 62.0221 52.2869L61.9498 52.342C61.6708 52.5474 61.6544 52.4537 61.3323 52.1854L61.6417 51.9549ZM121.708 47.6623C122.025 48.3173 121.549 49.3091 122.474 49.5631C123.154 49.7498 123.886 48.8467 124.532 49.2323C125.245 49.6582 124.718 50.531 124.322 50.971C123.607 51.7656 122.621 51.8808 121.615 51.6573C119.891 51.2744 120.542 48.3337 121.708 47.6623ZM72.1934 49.0747C72.8182 49.1497 73.0126 47.9526 72.2846 48.3583C72.0167 48.5078 71.6149 49.0054 72.1934 49.0747ZM80.9605 38.8903C80.5394 38.8622 80.8766 38.2901 80.3147 38.6685C79.9539 38.9116 79.8113 39.7422 79.6805 40.1296L79.5953 40.379C79.2145 41.4811 78.8546 42.3147 78.0404 43.2563C77.0558 44.3945 75.9054 45.468 74.8556 46.532C74.095 47.3027 72.6374 47.3005 73.1447 48.6796C73.7342 48.0201 74.0011 48.2878 74.607 47.9826C74.9509 47.8095 74.8804 47.6245 75.1915 47.299C75.5779 46.8948 76.0226 47.0226 76.443 46.9032C77.0437 46.7326 77.4747 46.4168 77.9081 45.9594C78.8675 44.9468 79.3996 43.622 80.3204 42.5759C80.7939 42.0381 82.1981 41.0587 81.8765 40.1109C81.7832 39.8353 81.6007 39.8403 81.5247 39.7047C81.581 39.8055 81.1505 39.4383 81.1716 39.4619C80.9849 39.2523 81.6404 38.9352 80.9605 38.8903ZM25.1177 44.8362C25.0479 45.0147 24.9913 45.1977 24.9476 45.3844C24.9156 45.6412 25.0899 45.7591 25.2622 45.5508C25.3975 45.3867 25.1651 45.0102 25.1177 44.8362ZM113.058 38.2293C110.323 37.8156 104.949 40.8539 108.647 43.5294C110.67 44.9922 111.941 42.5034 113.191 41.2981C113.629 40.8757 114.771 40.1129 114.82 39.4286C114.88 38.5913 113.7 38.3261 113.058 38.2293ZM51.3379 36.0871C50.0057 35.983 48.8074 37.2973 47.7893 37.9747C47.0218 38.4855 45.2625 39.0688 45.49 40.2701C45.3266 40.1102 45.1632 40.1 45.0001 40.2393C44.8598 40.5125 44.6725 40.7436 44.6944 41.0707C45.2176 40.5495 45.9742 40.8047 46.0345 39.8636C46.6963 40.1954 47.0575 39.5314 47.4578 39.1626C47.8618 38.7904 48.3152 38.563 48.7699 38.2578L48.8032 38.2338C49.2932 37.8599 50.7882 35.9126 51.0802 37.5221L51.6284 36.718L50.657 36.5921L51.3379 36.0871ZM27.7741 40.0065C27.2837 39.7907 27.0682 39.9554 27.1032 40.4858C27.8911 40.5466 27.9983 40.7008 28.6077 40.1766C28.3728 40.1061 27.9633 40.09 27.7741 40.0065ZM29.5404 37.6638C29.7767 37.7557 29.6752 38.1046 29.6506 38.3494C29.6881 37.9767 28.9551 38.8113 29.5404 37.6638ZM63.8137 30.0551C62.9593 29.5804 61.5901 30.512 60.8427 30.8723C59.3692 31.5822 57.8906 32.2656 56.4412 33.0267C54.9238 33.8232 53.5218 34.9384 51.9115 35.5415C51.5231 35.6868 51.3476 36.6478 51.7851 36.837C52.0995 36.9728 52.8072 36.316 53.055 36.1467C54.0164 35.4899 55.5199 35.0037 56.0146 33.893L56.2284 34.5669C56.5609 33.6354 57.0654 33.8141 57.8249 33.5765L57.8796 33.5588C58.0373 33.5059 58.5881 33.3805 58.6412 33.3537C58.8572 33.2444 58.7721 33.1908 58.962 33.0979C59.8013 32.688 61.72 31.2016 62.5998 31.5815C62.2807 31.0322 62.8148 30.1378 62.9673 31.1251C63.3794 30.9031 64.9666 30.6963 63.8137 30.0551Z" fill="black"/>
</g>
</g>
</g>
</g>
</g>
</svg>
