<svg width="207" height="207" viewBox="0 0 207 207" fill="none" xmlns="http://www.w3.org/2000/svg">
<g id="Group 30">
<circle id="Ellipse 3" cx="103.5" cy="103.5" r="103.5" fill="#F9F8F6"/>
<g id="Mask group">
<mask id="mask0_27_391" style="mask-type:alpha" maskUnits="userSpaceOnUse" x="0" y="0" width="207" height="207">
<circle id="Ellipse 2" cx="103.5" cy="103.5" r="103.5" fill="#F2F1EF"/>
</mask>
<g mask="url(#mask0_27_391)">
<g id="Master/Doodles/Loving">
<path id="Shape" fill-rule="evenodd" clip-rule="evenodd" d="M81.8415 63.7204C83.3883 63.5494 84.9625 63.5044 86.5199 63.5295L86.9809 63.5377C88.0481 63.5453 91.3703 63.449 91.6929 64.6449C91.916 65.4734 90.8003 65.246 90.2456 65.2675C89.4079 65.3 88.5682 65.3069 87.7321 65.3676L87.374 65.3971C86.4698 65.4812 84.4952 65.4009 83.8879 66.207C83.2356 67.0731 84.4784 68.5914 84.9308 69.3739L84.9542 69.4151C86.6961 72.5278 87.7814 75.8708 90.9017 77.9372C93.8503 79.8898 97.7068 80.7358 101.105 81.6361L101.894 81.8459C103.024 82.1527 103.31 82.3221 103.751 83.5675L103.802 83.716C104.254 85.038 104.42 84.1099 104.758 83.2324L104.773 83.1943C105.274 81.9158 106.242 82.4905 107.483 82.5801C109.371 82.7168 111.445 82.4864 113.32 82.1756L113.545 82.1379C117.11 81.5301 120.89 80.7086 123.715 78.3119C126.608 75.8571 128.434 72.2799 129.556 68.7148L129.321 68.6865C128.446 68.5859 127.456 68.5078 126.685 68.1027C125.499 67.4795 126.107 66.5298 127.196 66.1922C128.93 65.6552 131.127 65.9295 132.881 66.1522C135.08 66.4316 137.288 66.6125 139.499 66.7625L140.102 66.8027C148.18 67.3328 155.892 68.2952 163.552 71.0605C170.776 73.6681 177.596 77.3886 183.755 81.9665C189.993 86.604 195.159 92.1963 199.612 98.5452C201.976 101.917 203.647 105.375 205.106 109.216C205.764 110.951 206.223 112.643 206.479 114.485C206.732 116.318 206.403 118.296 206.809 120.099L206.855 120.291C207.385 122.355 206.335 125.124 205.725 127.089C204.945 129.605 203.709 131.977 202.176 134.118C196.537 141.989 186.598 145.955 177.221 146.951C174.568 147.233 171.907 147.283 169.241 147.301C168.255 147.308 167.248 147.415 166.267 147.288C165.302 147.162 164.868 146.698 164.091 146.266C163.2 145.772 161.891 145.71 160.905 145.506L159.715 145.264C158.791 145.075 157.871 144.879 156.959 144.628C155.925 144.343 154.901 144.072 153.857 143.839L153.409 143.741C152.422 143.532 151.321 143.092 150.302 143.357C152.557 146.897 155.113 150.486 158.107 153.448C160.759 156.072 164 158.238 166.363 161.142C166.948 161.862 167.781 163.72 168.847 163.78C169.371 163.81 169.653 163.163 170.206 163.331C170.807 163.513 170.806 164.45 170.666 164.905C169.732 167.943 164.13 168.625 161.544 168.456L161.466 168.45C159.412 168.299 157.262 168.241 155.241 167.834C153.401 167.464 151.679 166.552 149.79 166.419C146.11 166.16 142.894 169.268 140.293 171.532L139.726 172.021C137.135 174.249 133.843 177.006 130.328 177.151C126.139 177.325 121.968 175.332 118.105 173.983C114.395 172.688 110.563 171.633 106.772 170.562L105.436 170.184C101.443 169.045 97.368 167.706 93.1849 168.621C89.7688 169.369 86.0694 171.447 83.8286 174.158L83.7048 174.31C82.7406 175.513 81.9067 176.93 80.2975 177.294C78.8226 177.628 77.4195 177.15 76.3912 176.087C74.1665 173.787 73.0495 170.563 71.8636 167.633L71.6534 167.119C70.0646 163.285 69.1145 159.383 68.3771 155.306C67.9685 153.047 67.5699 150.785 67.2369 148.514C67.0858 147.482 66.9475 146.448 66.8298 145.412C66.7627 144.82 66.8801 143.73 66.6044 143.165C66.0075 141.944 63.9083 143.576 62.9608 144.02L62.2348 144.345C60.6309 145.062 59.037 145.756 57.3606 146.31C55.5077 146.922 53.6722 147.669 51.7766 148.129C51.0947 148.295 50.3291 148.414 49.6977 148.742C49.1718 149.016 48.9847 149.658 48.5543 149.882C47.9479 150.197 47.327 149.604 46.6805 149.551C45.8266 149.481 44.8805 149.757 44.0492 149.93C42.1429 150.327 40.2883 150.853 38.3337 150.97C34.3361 151.208 30.3536 150.243 26.5848 148.991L26.3717 148.92C19.1075 146.481 11.6137 143.461 8.16073 136.109C1.51625 121.964 4.94047 103.529 15.7486 92.4503C27.0083 80.9092 41.9511 72.8981 57.3797 68.5507C65.332 66.3097 73.6237 64.6292 81.8415 63.7204ZM84.863 110.526C80.6979 111.834 76.5792 113.367 72.8452 115.657C69.7486 117.556 66.6988 119.592 63.6775 121.632L61.1246 123.358C58.2401 125.303 55.1172 127.345 51.8815 128.582C50.7594 129.011 48.9454 129.344 48.2957 130.484C47.7138 131.505 48.0403 133.09 48.0546 134.205C48.0869 136.761 47.808 139.348 47.6835 141.911L47.662 142.391C47.635 143.054 47.3372 144.808 47.923 145.307C48.466 145.769 50.0472 145.148 50.5961 144.995L51.1985 144.825C57.6256 143.009 64.0708 140.902 69.652 137.144C72.8729 134.975 75.6555 132.226 78.5605 129.669C80.1406 128.278 81.9037 127.034 83.3684 125.52C83.9016 124.968 84.338 124.358 84.9487 123.889C85.531 123.44 86.2211 123.21 86.7069 122.626C87.1224 122.127 87.6291 121.676 87.8308 121.036C86.6008 121.036 83.0278 123.177 82.4101 121.342C81.7735 119.452 85.2727 117.41 86.305 116.273C85.1042 116.454 83.9213 116.732 82.7733 117.128C82.0783 117.368 80.9451 118.11 80.1786 118.086C78.5974 118.039 79.1846 116.184 79.7573 115.364C80.4045 114.438 81.2926 113.67 82.1798 112.951L82.8413 112.42C83.0685 112.237 85.0559 110.932 84.863 110.526ZM126.436 109.01L126.137 108.735C124.872 107.58 123.16 106.239 121.348 106.659C122.085 108.475 123.562 110.058 124.955 111.421L125.074 111.537C125.656 112.103 127.52 113.388 127.126 114.411C126.486 116.072 123.736 114.329 122.934 113.849C121.128 112.767 119.197 111.99 117.122 111.588C118.331 113.025 119.631 114.395 121.151 115.506L121.654 115.866C122.491 116.477 123.484 117.343 122.448 118.18C120.232 119.967 116.285 116.427 114.148 115.864C113.88 117.09 114.537 117.73 115.392 118.55C116.343 119.461 117.508 119.336 118.361 120.413C120.062 122.562 121.841 124.58 123.817 126.496C128.059 130.606 132.808 133.253 138.197 135.567C143.843 137.99 149.932 139.538 155.918 140.888L156.426 141.003C157.677 141.298 164.343 143.034 164.378 142.435L164.451 141.182C164.697 136.853 164.828 132.4 163.137 128.319C162.463 126.693 161.684 126.147 159.952 126.071L159.862 126.068C157.552 125.991 155.332 125.78 153.056 125.324C148.417 124.394 143.752 123.067 139.4 121.194C137.495 120.374 135.64 119.382 134.053 118.035L133.838 117.851C133.082 117.195 132.321 116.445 131.83 115.582C131.351 114.743 131.218 113.824 130.605 113.045C129.465 111.597 127.819 110.272 126.436 109.01ZM65.4767 90.983C64.8659 90.284 63.0817 91.099 62.3867 91.3606L62.3486 91.3748C58.8511 92.6603 55.1154 93.7005 51.8077 95.4134C47.4598 97.6651 43.3098 100.332 39.4648 103.358C35.6155 106.386 32.0637 109.731 28.9007 113.472L28.7378 113.665C26.1771 116.711 23.2849 120.574 23.7535 124.77C24.1571 128.388 27.6798 129.706 30.8632 130.106C33.1009 130.388 35.1268 130.044 37.3022 129.571L38.1746 129.381C40.3082 128.918 42.4253 128.474 44.4955 127.746C47.1216 126.822 49.5463 125.501 52.0367 124.278C54.3042 123.165 56.681 122.296 58.9255 121.133L59.0692 121.059C60.352 120.411 62.5641 119.465 63.0616 118.064C63.3304 117.307 62.9268 116.319 62.8817 115.544C62.8055 114.237 62.9225 112.875 63.0031 111.561L63.0198 111.281C63.3054 106.261 63.926 101.263 64.4417 96.2645L64.5139 95.5438C64.6021 94.6892 64.7159 93.8691 65.0659 93.0532L65.1006 92.9759C65.3562 92.4301 65.9563 91.5321 65.4767 90.983ZM113.175 129.485C114.065 129.208 112.975 125.748 112.075 126.217C111.132 126.709 112.191 129.79 113.175 129.485ZM97.6998 125.91L97.7312 125.801C98.1037 124.529 96.7381 125.198 96.3159 125.729C95.5764 126.659 95.6517 128.328 96.4141 129.233C97.2208 128.315 97.381 127.047 97.6998 125.91ZM147.175 94.9036L146.801 94.7945C145.681 94.4736 144.972 94.3667 144.4 95.6457C143.88 96.806 143.77 98.1699 143.583 99.4202L143.559 99.5758C143.243 101.595 142.999 103.625 142.674 105.643L142.596 106.117C141.949 109.995 140.954 114.665 142.445 118.42C143.023 119.875 145.02 120.129 146.4 120.586L146.474 120.611C148.567 121.328 150.718 121.924 152.884 122.374C156.902 123.21 161.008 123.518 165.107 123.552C171.932 123.608 179.616 122.702 184.136 116.969C185.56 115.163 183.817 112.996 182.65 111.608C181.138 109.811 179.516 108.281 177.634 106.872C173.918 104.09 169.877 102.116 165.712 100.115C161.499 98.0923 157.454 96.665 152.819 95.9571C150.92 95.6671 149.023 95.443 147.175 94.9036ZM110.614 90.3778C108.115 90.3387 105.588 91.9411 104.025 93.7894L103.865 93.9803C103.059 94.9399 102.726 95.0649 101.901 94.0096L101.758 93.8282C101.061 92.9518 100.276 92.0916 99.2067 91.6877C97.1797 90.9224 94.4255 91.4305 92.5308 92.3459C90.4446 93.3542 89.2958 95.5407 88.957 97.7629C88.1576 103.006 93.3958 108.716 97.6775 111.046C98.9158 111.72 100.298 112.025 101.5 112.778L101.738 112.925C102.66 113.49 103.464 113.861 104.512 113.207C105.577 112.543 106.679 111.666 107.633 110.845C108.718 109.911 110.067 109.302 111.105 108.331L111.405 108.048C113.296 106.254 114.976 104.398 116.132 102.023C116.537 101.19 116.852 100.439 116.95 99.5292L116.953 99.4895C116.963 99.1947 116.907 97.8298 116.907 97.8293C118.216 96.7729 117.083 94.4011 116.301 93.0042L116.148 92.7351C115.956 92.4013 115.624 91.7434 115.292 91.5328C115.16 91.4493 114.848 91.6352 114.658 91.5459C114.504 91.4731 114.418 91.2582 114.264 91.1872C113.128 90.6637 111.875 90.3978 110.614 90.3778ZM79.7082 106.841C80.6429 105.284 77.6458 105.312 77.5072 106.663C77.3457 108.241 79.2006 107.686 79.7082 106.841ZM129.197 105.406L129.185 105.471C129.108 105.97 129.044 107.436 129.8 106.626C130.38 106.004 129.191 105.436 129.197 105.406ZM78.3586 95.4154C77.7987 95.0086 76.8579 95.1797 76.2297 95.2658C75.1729 95.4114 75.0212 96.7105 75.9176 97.1806C76.4438 97.4566 77.6903 97.3734 78.2229 97.0692C78.8973 96.6844 79.0888 95.9461 78.3586 95.4154ZM23.279 75.9029C22.8248 77.3696 20.526 78.3425 19.3796 79.234C15.3699 82.3535 11.4517 85.6013 7.82662 89.1615C6.01746 90.9384 4.63117 93.0732 3.0767 95.0619L2.83179 95.3736C2.42545 95.9031 1.74965 96.9198 1.00517 96.8192C0.148528 96.7038 -0.0246604 95.2284 0.00265442 94.5841C0.0962224 92.3868 2.10299 90.2648 3.53412 88.7517C5.14395 87.0505 6.86508 85.3925 8.62282 83.8434C10.5581 82.138 12.6582 80.6722 14.7983 79.2369C16.8998 77.8277 18.9147 76.1996 21.1002 74.9231L21.1722 74.8823C22.2071 74.3125 23.8264 74.1348 23.279 75.9029ZM134.109 95.9197C134.123 94.6722 131.643 94.172 131.621 95.6289C131.604 96.8126 134.095 97.0968 134.109 95.9197ZM135.597 85.3849C135.715 83.5069 131.381 85.0059 131.135 86.0834C130.612 88.3743 135.538 86.3265 135.597 85.3849ZM79.0196 83.0267C77.2114 83.0101 79.5902 85.043 80.1721 85.2989L80.1897 85.3063C80.8577 85.5751 81.7834 85.6398 81.5582 84.6628C81.3162 83.6134 79.8355 83.3428 79.0196 83.0267ZM163.442 61.9732C165.116 62.026 166.749 62.5749 168.328 63.0846C171.8 64.2058 175.107 65.7612 178.368 67.3869C184.085 70.2364 189.586 73.6842 194.629 77.6043C195.608 78.365 196.61 78.9918 197.666 79.6138L198.047 79.8365C198.768 80.2513 199.708 80.7632 199.973 81.5848C200.691 83.8081 197.067 81.5766 196.553 81.2574L194.744 80.137C184.375 73.7261 173.973 67.5688 162.245 63.8837C161.598 63.6805 161.397 63.1038 161.736 62.5321C162.104 61.9126 162.821 61.9537 163.442 61.9732ZM22.7907 66.6264C22.7154 67.2834 21.9908 67.4478 21.4755 67.6556L21.4292 67.6746C19.4996 68.4851 17.5219 69.1764 15.5975 70.0003C12.0258 71.5295 8.74584 73.7487 5.01786 74.9092C4.16593 75.1749 4.04022 74.3151 4.2683 73.7301C4.52234 73.077 5.28531 72.6185 5.83713 72.2408C7.429 71.1503 9.23437 70.3663 11.0021 69.6089C12.7547 68.8573 14.5592 68.2888 16.3561 67.6588C18.0261 67.0732 19.9645 65.9833 21.7579 65.9028L22.0264 65.89C22.5075 65.8721 22.8708 65.9219 22.7907 66.6264ZM97.2965 56.8988L97.437 56.5759C97.7996 55.7274 99.2177 51.9524 100.285 52.1659C101.307 52.3701 98.7319 59.077 98.4734 59.8183L98.4662 59.8389C96.9431 64.307 96.2257 69.0123 96.2257 73.733C95.1678 72.7806 94.5259 72.5454 94.424 70.9912C94.2963 69.0437 94.6001 67.0925 94.9609 65.1844L95.0028 64.9644C95.5283 62.2182 96.1942 59.4712 97.2965 56.8988ZM118.91 29.6026C121.229 29.6355 123.411 30.2846 125.574 31.0535L127.076 31.5917C128.755 32.1971 130.444 32.8667 131.784 34.063C134.721 36.6855 135.485 41.0278 135.966 44.743C136.565 49.3788 134.571 53.2683 132.892 57.4624C131.322 61.3851 128.439 64.5628 125.014 66.9842C123.279 68.2103 121.368 68.9666 119.367 69.6221L119.16 69.6896C117.052 70.3714 115.011 71.2847 112.755 71.2812C109.33 71.2762 104.945 69.6495 103.486 66.275C102.831 64.7591 103.452 64.4704 104.745 65.265L104.798 65.2978C106.726 66.5093 108.585 67.8166 110.838 68.354C115.209 69.3966 120.443 67.7814 124.275 65.6504C128.105 63.5199 130.677 60.3195 132.395 56.3344C134.13 52.3141 134.803 48.3526 134.134 44.0184C133.568 40.3454 132.44 36.9904 129.131 34.9965C121.985 30.6929 112.359 31.0396 106.004 36.6326C105.278 37.2716 104.559 37.8962 103.82 38.5103L103.221 39.0031C102.69 39.4434 102.138 39.9723 102.213 40.7061L102.219 40.7507C102.343 41.5022 103.717 44.0357 101.984 43.2362C100.55 42.5744 99.7703 41.2807 98.0328 41.1206C96.1834 40.95 93.9775 42.3707 93.4242 44.1587C92.8966 45.8649 93.8375 48.1991 95.3113 49.1777C96.1385 49.7269 97.0409 49.7015 97.9742 49.6738L98.2648 49.6657C98.7791 49.6535 100.211 49.4864 100.552 50.0302C101.154 50.992 99.0289 52.0028 98.3432 52.2156C96.6745 52.7333 94.7023 52.124 93.7431 50.6345C92.7679 49.1202 92.1005 47.3675 91.9661 45.5635C91.8377 43.835 92.2301 42.0849 93.2497 40.6657C94.3344 39.1563 96.5453 37.4642 98.5274 37.9885C99.3876 38.2161 100.079 39.1049 100.923 39.2738C101.456 39.3801 101.232 39.4563 101.673 39.0613C101.953 38.8108 102.218 38.3483 102.477 38.0513L103.435 36.9432C104.611 35.5832 105.826 34.2278 107.256 33.1538C110.52 30.7027 114.86 29.5451 118.91 29.6026ZM111.187 64.4425C111.602 64.9765 112.579 65.392 112.536 66.1797C112.467 67.4802 110.694 67.2389 110.103 66.5606C109.431 65.7882 109.501 64.3568 109.882 63.463C110.268 62.5579 110.977 64.1725 111.187 64.4425ZM122.475 57.3059C123.431 58.7961 122.266 60.4046 121.51 61.7235C120.787 62.9846 120.115 64.4101 119.274 65.5956C117.877 67.564 114.838 65.4347 114.747 63.4117C114.68 61.9055 115.716 62.5019 116.421 63.0679L116.576 63.194C117.236 63.7231 117.582 63.8301 118.307 63.209C119.835 61.8995 120.522 59.7099 121.579 58.052C121.788 57.7233 122.168 57.5256 122.475 57.3059ZM125.201 57.7851C125.447 58.5057 124.93 60.4152 126.368 60.2243C127.163 60.1189 127.332 58.9787 127.75 58.4811C129.155 56.8082 128.724 59.9722 128.357 60.7641C127.548 62.5094 125.283 63.712 124.16 61.4978C123.757 60.7026 123.745 59.7061 123.935 58.8413L123.957 58.7492C124.072 58.267 124.746 56.4543 125.201 57.7851ZM167.409 54.8579C168.54 54.9427 169.633 55.4768 170.706 55.799C173.873 56.7499 176.817 57.7868 179.774 59.2331L180.15 59.4193C180.696 59.6993 182.511 60.7181 181.23 61.179C180.307 61.511 178.151 60.0868 177.359 59.7451C173.877 58.2436 170.135 57.3675 166.489 56.3423C164.782 55.8623 166.395 54.782 167.409 54.8579ZM112.378 54.372C112.25 55.2129 111.46 56.8881 112.425 57.4896C113.164 57.9505 114.38 57.1391 115.114 56.6045L115.48 56.3344C116.19 55.7954 117.627 54.5205 117.686 56.2401C117.717 57.148 116.808 58.2372 116.159 58.7603L116.069 58.8313C114.654 59.9169 111.879 60.8315 110.881 58.7767C110.326 57.6331 110.63 56.0049 110.997 54.8524L111.017 54.7932C111.352 53.8542 112.679 52.3834 112.378 54.372ZM130.283 49.4893L130.784 50.0702C131.406 50.8036 132.325 52.0114 131.696 52.8184C130.859 53.8921 129.506 51.9633 128.948 51.3774L128.926 51.3541C128.436 50.8535 127.406 49.4277 127.845 48.6715C128.477 47.5848 129.659 48.78 130.283 49.4893ZM121.674 46.9532C123.496 48.1402 121.143 48.9982 120.079 49.1194L119.826 49.1445C118.594 49.2597 117.089 49.3025 115.991 48.7155C114.339 47.8331 114.889 46.5001 116.49 46.181C118.132 45.854 120.246 46.0226 121.674 46.9532ZM97.7484 43.1364L98.0409 43.1944C99.3171 43.4545 100.681 43.8478 101.109 45.218C101.577 46.7198 100.921 47.2334 99.5807 46.9207L99.2002 46.8289C97.9412 46.5308 96.271 46.1682 95.6057 45.0188C94.7417 43.5262 96.4934 42.8925 97.7484 43.1364Z" fill="black"/>
</g>
</g>
</g>
</g>
</svg>
